<svg xmlns="http://www.w3.org/2000/svg" xmlns:xlink="http://www.w3.org/1999/xlink" width="20" height="21" viewBox="0 0 20 21">
  <defs>
    <clipPath id="clip-path">
      <rect id="Rectángulo_14967" data-name="Rectángulo 14967" width="20" height="21" transform="translate(0 -0.371)" fill="none" stroke="#707070" stroke-width="1"/>
    </clipPath>
  </defs>
  <g id="Enmascarar_grupo_42104" data-name="Enmascarar grupo 42104" transform="translate(0 0.371)" clip-path="url(#clip-path)">
    <g id="Grupo_47551" data-name="Grupo 47551" transform="translate(0.538 0.71)">
      <g id="noun-admin-4412628" transform="translate(0)">
        <path id="Trazado_114331" data-name="Trazado 114331" d="M132.5,10.256h0a1.076,1.076,0,0,1,0-1.987,1.257,1.257,0,0,0,.681-1.643l-.819-1.977a1.259,1.259,0,0,0-1.643-.68,1.075,1.075,0,0,1-1.405-1.405A1.258,1.258,0,0,0,128.632.92L126.655.1a1.26,1.26,0,0,0-1.643.681,1.076,1.076,0,0,1-1.987,0A1.258,1.258,0,0,0,121.382.1l-1.977.819a1.257,1.257,0,0,0-.681,1.643,1.076,1.076,0,0,1-1.405,1.405,1.258,1.258,0,0,0-1.643.681l-.819,1.977a1.258,1.258,0,0,0,.681,1.643,1.076,1.076,0,0,1,0,1.987,1.259,1.259,0,0,0-.68,1.643l.819,1.977a1.257,1.257,0,0,0,1.643.681,1.055,1.055,0,0,1,1.172.233,1.156,1.156,0,0,1,.259.406,6.7,6.7,0,0,1,2.428-1.959,4.893,4.893,0,1,1,5.683,0,6.7,6.7,0,0,1,2.427,1.958,1.155,1.155,0,0,1,.259-.406,1.054,1.054,0,0,1,1.172-.233,1.26,1.26,0,0,0,1.643-.681l.819-1.977a1.26,1.26,0,0,0-.68-1.643Z" transform="translate(-114.761 -0.004)" fill="#ffce00"/>
      </g>
      <g id="noun-user-4883236_1_" data-name="noun-user-4883236 (1)" transform="translate(4.02 6.365)">
        <path id="Trazado_114332" data-name="Trazado 114332" d="M241.945,79.182a3.072,3.072,0,1,1-3.072-3.072,3.072,3.072,0,0,1,3.072,3.072" transform="translate(-233.635 -76.11)" fill="#ffce00"/>
        <path id="Trazado_114333" data-name="Trazado 114333" d="M155.31,326.365a4.356,4.356,0,0,1,4.355-4.355h1.766a4.356,4.356,0,0,1,4.355,4.355Z" transform="translate(-155.31 -314.515)" fill="#ffce00"/>
      </g>
    </g>
  </g>
</svg>
