<svg xmlns="http://www.w3.org/2000/svg" xmlns:xlink="http://www.w3.org/1999/xlink" width="20" height="21" viewBox="0 0 20 21">
  <defs>
    <clipPath id="clip-path">
      <rect id="Rectángulo_14970" data-name="Rectángulo 14970" width="20" height="21" transform="translate(0.284 -0.371)" fill="none" stroke="#707070" stroke-width="1"/>
    </clipPath>
  </defs>
  <g id="Enmascarar_grupo_42107" data-name="Enmascarar grupo 42107" transform="translate(-0.284 0.371)" clip-path="url(#clip-path)">
    <g id="noun-coupon-1405775" transform="translate(1.378 0.71)">
      <path id="Trazado_114337" data-name="Trazado 114337" d="M179.328,97.862c-.516-.516-1.032-1.005-1.521-1.521-.163-.163-.217-.163-.407-.027a1.5,1.5,0,0,1-2.119-.136,1.732,1.732,0,0,1,.027-2.391c-.027-.027-.027-.054-.054-.054-.516-.516-1.005-1.032-1.521-1.521a1.385,1.385,0,0,0-2.255,0c-1.684,1.684-3.369,3.341-5.053,5.026-1.494,1.494-2.988,2.961-4.455,4.455a1.323,1.323,0,0,0,0,2.038l1.467,1.467c.163.163.272.244.489.081a1.392,1.392,0,0,1,1.141-.244,1.631,1.631,0,0,1,1.06,2.5c-.081.136-.163.19,0,.353.6.571,1.141,1.168,1.739,1.712a1.271,1.271,0,0,0,1.766-.027q4.89-4.849,9.726-9.726a1.341,1.341,0,0,0-.027-1.983Zm-14.181,1.956a.263.263,0,0,1-.381,0l-.19-.19a.269.269,0,1,1,.38-.38l.19.19a.262.262,0,0,1,0,.38Zm1.032,1.005a.263.263,0,0,1-.381,0l-.407-.407a.269.269,0,0,1,.38-.38l.407.407a.262.262,0,0,1,0,.38Zm1.005,1.032a.293.293,0,0,1-.19.081.247.247,0,0,1-.19-.081l-.407-.407a.269.269,0,1,1,.38-.38l.407.407A.262.262,0,0,1,167.185,101.855Zm1.032,1.032a.293.293,0,0,1-.19.081.247.247,0,0,1-.19-.081l-.407-.407a.269.269,0,1,1,.38-.38l.407.407a.263.263,0,0,1,0,.38Zm1.005,1.005a.263.263,0,0,1-.381,0l-.407-.407a.269.269,0,0,1,.38-.38l.407.407A.262.262,0,0,1,169.222,103.893Zm1.032,1.032a.263.263,0,0,1-.381,0l-.407-.407a.269.269,0,1,1,.38-.38l.407.407A.263.263,0,0,1,170.255,104.925Zm1.005,1.005a.263.263,0,0,1-.381,0l-.407-.407a.269.269,0,1,1,.38-.38l.407.407A.262.262,0,0,1,171.26,105.93Zm.815.815a.263.263,0,0,1-.381,0l-.19-.19a.269.269,0,1,1,.38-.38l.19.19a.262.262,0,0,1,0,.38Z" transform="translate(-161.49 -91.63)" fill="#ffce00"/>
    </g>
  </g>
</svg>
