<svg xmlns="http://www.w3.org/2000/svg" xmlns:xlink="http://www.w3.org/1999/xlink" width="19" height="21" viewBox="0 0 19 21">
  <defs>
    <clipPath id="clip-path">
      <rect id="Rectángulo_14971" data-name="Rectángulo 14971" width="19" height="21" transform="translate(0.433 -0.371)" fill="none" stroke="#707070" stroke-width="1"/>
    </clipPath>
  </defs>
  <g id="Enmascarar_grupo_42108" data-name="Enmascarar grupo 42108" transform="translate(-0.433 0.371)" clip-path="url(#clip-path)">
    <g id="noun-flag-4882667" transform="translate(0.533 0.172)">
      <path id="Trazado_114338" data-name="Trazado 114338" d="M240.188,42.559c1.132-.463,2.3-.854,3.417-1.341a3.759,3.759,0,0,1,3.248-.034c.455.214.92.4,1.383.606.111.048.222.093.339.14.013-.048.021-.058.021-.069,0-3.112.008-6.228,0-9.34a.41.41,0,0,0-.209-.291c-.635-.288-1.272-.574-1.922-.825a3.154,3.154,0,0,0-2.375.013c-1.341.529-2.689,1.034-4.038,1.547a4.523,4.523,0,0,1-3.541-.011c-.468-.2-.941-.391-1.465-.608v.434c0,2.713.04,5.426-.024,8.14A1.327,1.327,0,0,0,236,42.407a5.236,5.236,0,0,0,4.192.151Z" transform="translate(-232.302 -31.18)" fill="#fff"/>
      <path id="Trazado_114339" data-name="Trazado 114339" d="M178.168,31.191a.7.7,0,0,0-.7.7V49.98h1.407V31.894a.7.7,0,0,0-.7-.7Z" transform="translate(-177.465 -31.19)" fill="#fff"/>
    </g>
  </g>
</svg>
