<svg xmlns="http://www.w3.org/2000/svg" xmlns:xlink="http://www.w3.org/1999/xlink" width="19" height="21" viewBox="0 0 19 21">
  <defs>
    <clipPath id="clip-path">
      <rect id="Rectángulo_14972" data-name="Rectángulo 14972" width="19" height="21" transform="translate(-0.006 -0.371)" fill="none" stroke="#707070" stroke-width="1"/>
    </clipPath>
  </defs>
  <g id="Enmascarar_grupo_42109" data-name="Enmascarar grupo 42109" transform="translate(0.006 0.371)" clip-path="url(#clip-path)">
    <g id="noun-driver-1814888_1_" data-name="noun-driver-1814888 (1)" transform="translate(1.79 1.249)">
      <path id="Trazado_114340" data-name="Trazado 114340" d="M308.979,267.68a8.259,8.259,0,1,0,8.259,8.259A8.26,8.26,0,0,0,308.979,267.68Zm-5.91,4.736a5.655,5.655,0,0,1,1.057-1.331,6.927,6.927,0,0,1,6.145-1.918,6.4,6.4,0,0,1,2.5,1.018,6.745,6.745,0,0,1,2.113,2.231.594.594,0,0,1-.235.822l-.274.117a5.32,5.32,0,0,1-4.306.039,2.5,2.5,0,0,0-1.1-.235,2.628,2.628,0,0,0-1.1.235,5.322,5.322,0,0,1-4.306-.039l-.274-.118a.629.629,0,0,1-.235-.822Zm4.893,9-.078.665a.59.59,0,0,1-.7.509,7.015,7.015,0,0,1-3.092-1.761,6.844,6.844,0,0,1-2.035-4.854.576.576,0,0,1,.744-.548l1.135.313a5.337,5.337,0,0,1,2.857,1.918l.039.039A5.219,5.219,0,0,1,307.961,281.419Zm1.1-4.11a1.376,1.376,0,0,1-1.448-1.448,1.358,1.358,0,0,1,1.292-1.292,1.376,1.376,0,0,1,1.448,1.448A1.33,1.33,0,0,1,309.057,277.309Zm4.775,3.484a6.535,6.535,0,0,1-3.053,1.761.572.572,0,0,1-.7-.509l-.039-.665a5.375,5.375,0,0,1,1.135-3.758l.039-.039a5.337,5.337,0,0,1,2.857-1.918l1.1-.313a.562.562,0,0,1,.7.548A6.709,6.709,0,0,1,313.832,280.793Z" transform="translate(-300.72 -267.68)" fill="#fff"/>
    </g>
  </g>
</svg>
