<svg id="Grupo_66734" data-name="Grupo 66734" xmlns="http://www.w3.org/2000/svg" xmlns:xlink="http://www.w3.org/1999/xlink" width="23.896" height="23.721" viewBox="0 0 23.896 23.721">
  <defs>
    <clipPath id="clip-path">
      <rect id="Rectángulo_18985" data-name="Rectángulo 18985" width="23.896" height="23.721" fill="none"/>
    </clipPath>
  </defs>
  <g id="Grupo_66733" data-name="Grupo 66733" clip-path="url(#clip-path)">
    <path id="Trazado_149684" data-name="Trazado 149684" d="M13.549,23.69V15.18h2.643a.28.28,0,0,0,.132-.227c.2-.965.212-2.1.361-3.088H13.549V9.491a5.785,5.785,0,0,1,.282-.793c.636-1.1,1.978-.682,3.033-.864l-.005-2.773c-2.582-.5-5.637-.477-6.628,2.456A7.3,7.3,0,0,0,9.965,8.6v3.27H7.009V15.18H9.965v8.51c-1.577-.069-3.228.091-4.8,0A5.073,5.073,0,0,1,.878,21.519,4.383,4.383,0,0,1,.225,19.2C.211,14.509-.184,9.471.106,4.829A4.846,4.846,0,0,1,2.455.7,4.565,4.565,0,0,1,4.5.128c4.66-.209,9.725-.1,14.382-.091,3.449.007,4.725,2.272,4.883,5.509.185,3.82.161,8.541,0,12.37-.071,1.694-.211,3.256-1.526,4.476a5.479,5.479,0,0,1-3.271,1.3Z" transform="translate(0 0)"/>
  </g>
</svg>
