<svg id="Grupo_65092" data-name="Grupo 65092" xmlns="http://www.w3.org/2000/svg" xmlns:xlink="http://www.w3.org/1999/xlink" width="23.742" height="23.721" viewBox="0 0 23.742 23.721">
  <defs>
    <clipPath id="clip-path">
      <rect id="Rectángulo_18311" data-name="Rectángulo 18311" width="23.742" height="23.721"/>
    </clipPath>
  </defs>
  <g id="Grupo_65091" data-name="Grupo 65091" clip-path="url(#clip-path)">
    <path id="Trazado_1" data-name="Trazado 1" d="M4.6.174C9.19.457,14.463-.3,18.978.146A5.449,5.449,0,0,1,23.614,4.78c-.293,4.545.394,9.586.005,14.072a5.42,5.42,0,0,1-4.641,4.741c-4.547-.293-9.591.394-14.079.005A5.421,5.421,0,0,1,.156,18.959C.528,14.443-.349,9.1.167,4.679A5.469,5.469,0,0,1,4.6.174M19.117,2.4a1.865,1.865,0,0,0,.842,3.631A1.865,1.865,0,0,0,19.117,2.4M11.08,4.532a7.377,7.377,0,1,0,7.041,11.281A7.4,7.4,0,0,0,11.08,4.532" transform="translate(0 0)"/>
    <path id="Trazado_2" data-name="Trazado 2" d="M70.773,63.8c4.494,4.491-2.353,11.337-6.848,6.845s2.353-11.337,6.848-6.845" transform="translate(-55.463 -55.355)"/>
  </g>
</svg>
