<svg id="Grupo_66736" data-name="Grupo 66736" xmlns="http://www.w3.org/2000/svg" xmlns:xlink="http://www.w3.org/1999/xlink" width="23.261" height="23.721" viewBox="0 0 23.261 23.721">
  <defs>
    <clipPath id="clip-path">
      <rect id="Rect치ngulo_18987" data-name="Rect치ngulo 18987" width="23.261" height="23.721" fill="none"/>
    </clipPath>
  </defs>
  <g id="Grupo_66735" data-name="Grupo 66735" clip-path="url(#clip-path)">
    <path id="Trazado_149685" data-name="Trazado 149685" d="M3.593.371A84.8,84.8,0,0,1,19.083.339,4.448,4.448,0,0,1,23.03,4.026a142.474,142.474,0,0,1,.006,15.659A4.386,4.386,0,0,1,19.213,23.5,139.442,139.442,0,0,1,3.942,23.5,4.393,4.393,0,0,1,0,19.81l.012-15.9A4.561,4.561,0,0,1,3.593.371m1.16,3.878c-2.181.4-1.735,3.775.744,3.6,2.629-.19,2.187-4.134-.744-3.6m11.292,15.5h3.3l.194-.194V13.47a10.073,10.073,0,0,0-.323-1.747,3.851,3.851,0,0,0-6.792-1.164V9.265H8.928v10.48h3.493V13.211c0-.724,1.17-1.495,1.876-1.5a1.673,1.673,0,0,1,1.747,1.5ZM6.988,9.265H3.494v10.48H6.988Z" transform="translate(0 0)"/>
    <path id="Trazado_149686" data-name="Trazado 149686" d="M76.122,80.256V73.722a1.673,1.673,0,0,0-1.747-1.5c-.706,0-1.876.774-1.876,1.5v6.534H69.006V69.775H72.5v1.294a3.851,3.851,0,0,1,6.792,1.164,10.075,10.075,0,0,1,.323,1.747v6.081l-.194.194Z" transform="translate(-60.078 -60.511)" fill="#fff"/>
    <rect id="Rect치ngulo_18986" data-name="Rect치ngulo 18986" width="3.493" height="10.48" transform="translate(3.494 9.264)" fill="#fff"/>
    <path id="Trazado_149687" data-name="Trazado 149687" d="M27.291,32.5c2.931-.538,3.373,3.406.744,3.6-2.478.179-2.925-3.2-.744-3.6" transform="translate(-22.538 -28.251)" fill="#fff"/>
  </g>
</svg>
