<svg xmlns="http://www.w3.org/2000/svg" xmlns:xlink="http://www.w3.org/1999/xlink" width="18" height="21" viewBox="0 0 18 21">
  <defs>
    <clipPath id="clip-path">
      <rect id="Rectángulo_14978" data-name="Rectángulo 14978" width="18" height="21" transform="translate(-0.327 -0.371)" fill="none" stroke="#707070" stroke-width="1"/>
    </clipPath>
  </defs>
  <g id="Enmascarar_grupo_42115" data-name="Enmascarar grupo 42115" transform="translate(0.327 0.371)" clip-path="url(#clip-path)">
    <g id="noun-money-4886841" transform="translate(-0.277 0.71)">
      <path id="Trazado_114348" data-name="Trazado 114348" d="M141.256,62.4a8.856,8.856,0,1,1-8.856,8.856A8.857,8.857,0,0,1,141.256,62.4Zm-1.481,6.968a1.546,1.546,0,0,1,3.037,0,.635.635,0,1,0,1.27,0,2.593,2.593,0,0,0-2.149-2.454v-.591a.635.635,0,1,0-1.27,0v.588a2.593,2.593,0,0,0-2.149,2.454c0,1.954,1.57,2.279,2.609,2.5,1.2.249,1.616.414,1.616,1.281a1.546,1.546,0,0,1-3.037,0,.635.635,0,1,0-1.27,0,2.6,2.6,0,0,0,2.223,2.47v.572a.635.635,0,1,0,1.27,0v-.607A2.58,2.58,0,0,0,144,73.143c0-1.977-1.579-2.3-2.626-2.521-1.186-.247-1.6-.409-1.6-1.256Z" transform="translate(-132.4 -62.398)" fill="#ffce00" fill-rule="evenodd"/>
    </g>
  </g>
</svg>
