<svg xmlns="http://www.w3.org/2000/svg" xmlns:xlink="http://www.w3.org/1999/xlink" width="22" height="20" viewBox="0 0 22 20">
  <defs>
    <clipPath id="clip-path">
      <rect id="Rectángulo_14981" data-name="Rectángulo 14981" width="22" height="20" transform="translate(-0.159)" fill="none" stroke="#707070" stroke-width="1"/>
    </clipPath>
  </defs>
  <g id="Enmascarar_grupo_42118" data-name="Enmascarar grupo 42118" transform="translate(0.159)" clip-path="url(#clip-path)">
    <path id="noun-transaction-4883871" d="M186.563,45.478a7.926,7.926,0,1,1,2.322,5.6A7.637,7.637,0,0,1,186.563,45.478Zm6-2.971a2.745,2.745,0,0,1,1-1.026v-.406a.831.831,0,0,1,.269-.623.947.947,0,0,1,1.3,0,.831.831,0,0,1,.269.623v.253a5.545,5.545,0,0,1,1.263.528.9.9,0,0,1,.27.226.862.862,0,0,1,.159.308.838.838,0,0,1,.023.343.848.848,0,0,1-.115.326.881.881,0,0,1-.558.41.919.919,0,0,1-.7-.088q-1.194-.661-1.6.007a.578.578,0,0,0,.023.548,1.7,1.7,0,0,0,.769.78l.009.005a3.43,3.43,0,0,1,1.531,1.609,2.177,2.177,0,0,1-.076,2.12,2.75,2.75,0,0,1-1,1.026v.406a.831.831,0,0,1-.269.623.947.947,0,0,1-1.3,0,.831.831,0,0,1-.269-.623v-.253a5.549,5.549,0,0,1-1.264-.528.9.9,0,0,1-.27-.226.863.863,0,0,1-.159-.308.837.837,0,0,1-.023-.343.849.849,0,0,1,.115-.326.882.882,0,0,1,.558-.41.919.919,0,0,1,.7.088q1.194.661,1.6-.007a.579.579,0,0,0-.023-.548,1.7,1.7,0,0,0-.769-.78l-.009-.005a3.43,3.43,0,0,1-1.531-1.609A2.176,2.176,0,0,1,192.566,42.506Z" transform="translate(-184.071 -35.27)" fill="#fff" fill-rule="evenodd"/>
  </g>
</svg>
