<svg xmlns="http://www.w3.org/2000/svg" xmlns:xlink="http://www.w3.org/1999/xlink" width="19" height="21" viewBox="0 0 19 21">
  <defs>
    <clipPath id="clip-path">
      <rect id="Rectángulo_14975" data-name="Rectángulo 14975" width="19" height="21" transform="translate(0.333 -0.371)" fill="none" stroke="#707070" stroke-width="1"/>
    </clipPath>
  </defs>
  <g id="Enmascarar_grupo_42112" data-name="Enmascarar grupo 42112" transform="translate(-0.333 0.371)" clip-path="url(#clip-path)">
    <g id="noun-percent-98963" transform="translate(1.833 1.249)">
      <path id="Trazado_114343" data-name="Trazado 114343" d="M112.658,30.515a8.587,8.587,0,1,0,0,12.144A8.587,8.587,0,0,0,112.658,30.515Zm-9.76,2.733a.954.954,0,1,1,.349,1.3A.954.954,0,0,1,102.9,33.247Zm7.377,6.678a.954.954,0,1,1-.349-1.3A.954.954,0,0,1,110.275,39.926Zm-6.387.709-1.349-1.349,6.747-6.747,1.349,1.349Z" transform="translate(-97.999 -27.999)" fill="#fff"/>
    </g>
  </g>
</svg>
