<svg xmlns="http://www.w3.org/2000/svg" xmlns:xlink="http://www.w3.org/1999/xlink" width="22" height="20" viewBox="0 0 22 20">
  <defs>
    <clipPath id="clip-path">
      <rect id="Rectángulo_14981" data-name="Rectángulo 14981" width="22" height="20" transform="translate(-0.159)" fill="none" stroke="#707070" stroke-width="1"/>
    </clipPath>
  </defs>
  <g id="Enmascarar_grupo_42118" data-name="Enmascarar grupo 42118" transform="translate(0.159)" clip-path="url(#clip-path)">
    <path id="noun-transaction-4883871" d="M188,35.442l.094-.35a.65.65,0,0,0-.46-.8.65.65,0,0,0-.8.46l-.476,1.777a.65.65,0,0,0,.46.8l1.777.476a.65.65,0,0,0,.8-.46.65.65,0,0,0-.46-.8l-.165-.044q.243-.13.491-.241a7.865,7.865,0,0,1,6.327,0,7.955,7.955,0,0,1,1.016.549.65.65,0,0,0,.9-.2.65.65,0,0,0-.2-.9,9.116,9.116,0,0,0-9.3-.278ZM186.563,43.4a5.852,5.852,0,1,1,1.714,4.138A5.639,5.639,0,0,1,186.563,43.4ZM191,41.209a2.027,2.027,0,0,1,.742-.758v-.3a.614.614,0,0,1,.2-.46.7.7,0,0,1,.959,0,.614.614,0,0,1,.2.46v.187a4.094,4.094,0,0,1,.933.39.664.664,0,0,1,.2.167.637.637,0,0,1,.117.228.619.619,0,0,1,.017.253.626.626,0,0,1-.085.24.65.65,0,0,1-.412.3.678.678,0,0,1-.515-.065q-.881-.488-1.178.005a.427.427,0,0,0,.017.4,1.252,1.252,0,0,0,.568.576l.007,0a2.533,2.533,0,0,1,1.13,1.188,1.607,1.607,0,0,1-.056,1.565,2.03,2.03,0,0,1-.742.758v.3a.614.614,0,0,1-.2.46.7.7,0,0,1-.959,0,.614.614,0,0,1-.2-.46v-.187a4.1,4.1,0,0,1-.933-.39.667.667,0,0,1-.2-.167.637.637,0,0,1-.117-.228.618.618,0,0,1-.017-.253.627.627,0,0,1,.085-.24.651.651,0,0,1,.412-.3.678.678,0,0,1,.515.065q.881.488,1.178-.005a.427.427,0,0,0-.017-.4,1.252,1.252,0,0,0-.568-.576l-.007,0a2.532,2.532,0,0,1-1.13-1.188A1.607,1.607,0,0,1,191,41.209Zm5.723,10.222-.042.072a.65.65,0,1,0,1.126.65l.92-1.593a.65.65,0,0,0-.238-.888l-1.593-.92a.65.65,0,1,0-.65,1.126l.279.161a7.952,7.952,0,0,1-.963.516,7.865,7.865,0,0,1-6.328,0,7.959,7.959,0,0,1-1.017-.548.65.65,0,0,0-.9.2.65.65,0,0,0,.2.9,9.118,9.118,0,0,0,9.2.32Z" transform="translate(-181.997 -33.196)" fill="#ffce00" fill-rule="evenodd"/>
  </g>
</svg>
