<svg xmlns="http://www.w3.org/2000/svg" xmlns:xlink="http://www.w3.org/1999/xlink" width="20" height="21" viewBox="0 0 20 21">
  <defs>
    <clipPath id="clip-path">
      <rect id="Rectángulo_14980" data-name="Rectángulo 14980" width="20" height="21" transform="translate(0.271 -0.371)" fill="none" stroke="#707070" stroke-width="1"/>
    </clipPath>
  </defs>
  <g id="Enmascarar_grupo_42117" data-name="Enmascarar grupo 42117" transform="translate(-0.271 0.371)" clip-path="url(#clip-path)">
    <g id="noun-car-7189" transform="translate(0.591 1.788)">
      <path id="Trazado_114350" data-name="Trazado 114350" d="M88.554,105.9a1.024,1.024,0,0,0-1.021-1.021h-1.22l-.885-2.3a2.525,2.525,0,0,0-1.47-1.345,18.968,18.968,0,0,0-4.682-.436,18.942,18.942,0,0,0-4.682.436,2.523,2.523,0,0,0-1.47,1.345l-.885,2.3h-1.22a1.021,1.021,0,1,0,0,2.041h.435l-.314.816a7.187,7.187,0,0,0-.4,2.152v4.825a1.3,1.3,0,0,0,2.6,0v-.742H85.214v.742a1.3,1.3,0,0,0,2.6,0v-4.825a7.192,7.192,0,0,0-.4-2.153l-.314-.816h.435a1.024,1.024,0,0,0,1.021-1.021Zm-15.273.3,1.042-2.829a.573.573,0,0,1,.5-.348h8.907a.573.573,0,0,1,.5.348l1.042,2.829a.242.242,0,0,1-.243.348h-11.5a.242.242,0,0,1-.243-.348Zm-.035,4.616a1.021,1.021,0,1,1,1.021-1.021A1.021,1.021,0,0,1,73.245,110.82Zm12.061,0a1.021,1.021,0,1,1,1.021-1.021A1.021,1.021,0,0,1,85.307,110.82Z" transform="translate(-69.998 -100.8)" fill="#ffce00"/>
    </g>
  </g>
</svg>
