<svg id="Grupo_66738" data-name="Grupo 66738" xmlns="http://www.w3.org/2000/svg" xmlns:xlink="http://www.w3.org/1999/xlink" width="23.929" height="23.721" viewBox="0 0 23.929 23.721">
  <defs>
    <clipPath id="clip-path">
      <rect id="Rectángulo_18988" data-name="Rectángulo 18988" width="23.929" height="23.721" fill="none"/>
    </clipPath>
  </defs>
  <g id="Grupo_66737" data-name="Grupo 66737" clip-path="url(#clip-path)">
    <path id="Trazado_149688" data-name="Trazado 149688" d="M4.045.024,19.724,0a4.627,4.627,0,0,1,4,4.083,152.764,152.764,0,0,1,0,15.433,4.627,4.627,0,0,1-4.083,4,152.972,152.972,0,0,1-15.432,0,4.627,4.627,0,0,1-4-4.083A150.869,150.869,0,0,1,.219,3.914,4.639,4.639,0,0,1,4.045.024M9.071,4.867H4.8l5.509,7.58-5.142,6.2h1.7l4.317-5.05,3.72,5.05h4.225l-5.774-7.961,4.763-5.817h-1.7L12.56,9.46l-.227-.141Z" transform="translate(0)"/>
    <path id="Trazado_149689" data-name="Trazado 149689" d="M56.257,52.7l3.262,4.453.227.141L63.6,52.7h1.7L60.54,58.519l5.774,7.961H62.089l-3.72-5.05-4.317,5.05h-1.7l5.142-6.2L51.986,52.7ZM64.385,65.47,55.706,53.62H53.915l8.68,11.849Z" transform="translate(-47.185 -47.835)" fill="#fff"/>
    <path id="Trazado_149690" data-name="Trazado 149690" d="M83.344,74.5H81.553l-8.68-11.849h1.791Z" transform="translate(-66.144 -56.863)"/>
  </g>
</svg>
