<svg id="clientes_o_administradores" xmlns="http://www.w3.org/2000/svg" width="16.182" height="12.014" viewBox="0 0 16.182 12.014">
  <path id="group_FILL1_wght500_GRAD0_opsz24" d="M33.41-800.182a.8.8,0,0,1-.585-.238.8.8,0,0,1-.238-.585v-1.358a2.255,2.255,0,0,1,.338-1.2,2.242,2.242,0,0,1,.9-.839,10.955,10.955,0,0,1,2.309-.849,10.09,10.09,0,0,1,2.385-.285,10.208,10.208,0,0,1,2.394.282,10.684,10.684,0,0,1,2.3.847,2.245,2.245,0,0,1,.9.836,2.259,2.259,0,0,1,.338,1.21V-801a.8.8,0,0,1-.238.585.8.8,0,0,1-.585.238Zm12.165,0a1.037,1.037,0,0,0,.286-.36,1.081,1.081,0,0,0,.106-.481v-1.472a3.074,3.074,0,0,0-.439-1.567,4.352,4.352,0,0,0-1.265-1.343,9.226,9.226,0,0,1,1.654.373,9.234,9.234,0,0,1,1.467.623,3.016,3.016,0,0,1,1.027.854,1.786,1.786,0,0,1,.359,1.073V-801a.8.8,0,0,1-.238.585.8.8,0,0,1-.585.238Zm-7.054-6.081a2.858,2.858,0,0,1-2.1-.869,2.858,2.858,0,0,1-.869-2.1,2.859,2.859,0,0,1,.869-2.1,2.859,2.859,0,0,1,2.1-.869,2.859,2.859,0,0,1,2.1.869,2.859,2.859,0,0,1,.869,2.1,2.858,2.858,0,0,1-.869,2.1,2.858,2.858,0,0,1-2.1.869Zm7.445-2.967a2.857,2.857,0,0,1-.872,2.1,2.857,2.857,0,0,1-2.1.871,3.382,3.382,0,0,1-.506-.047,4.193,4.193,0,0,1-.519-.11,4.3,4.3,0,0,0,.761-1.31,4.33,4.33,0,0,0,.264-1.5,4.33,4.33,0,0,0-.264-1.5,4.3,4.3,0,0,0-.761-1.31,2.3,2.3,0,0,1,.511-.126A4.168,4.168,0,0,1,43-812.2a2.857,2.857,0,0,1,2.1.871A2.857,2.857,0,0,1,45.966-809.229Z" transform="translate(-32.587 812.196)" fill="#fff"/>
</svg>
