<svg id="hide" xmlns="http://www.w3.org/2000/svg" width="23" height="21" viewBox="0 0 23 21">
  <rect id="Rectángulo_6174" data-name="Rectángulo 6174" width="23" height="21" fill="none"/>
  <g id="oculto" transform="translate(4.127 3.641)">
    <g id="Grupo_12501" data-name="Grupo 12501" transform="translate(0 0)">
      <g id="Grupo_12500" data-name="Grupo 12500">
        <path id="Trazado_56672" data-name="Trazado 56672" d="M231.147,160.063l2.187,2.187.01-.115a2.085,2.085,0,0,0-2.083-2.083Z" transform="translate(-223.624 -155.887)"/>
        <path id="Trazado_56673" data-name="Trazado 56673" d="M152.422,65.79a3.473,3.473,0,0,1,3.472,3.472,3.418,3.418,0,0,1-.247,1.267l2.031,2.031a8.246,8.246,0,0,0,2.385-3.3,8.217,8.217,0,0,0-7.641-5.208,8.12,8.12,0,0,0-2.767.486l1.5,1.5A3.489,3.489,0,0,1,152.422,65.79Z" transform="translate(-144.784 -63.012)"/>
        <path id="Trazado_56674" data-name="Trazado 56674" d="M.694,32.938l1.583,1.583.316.316A8.224,8.224,0,0,0,0,38.3a8.2,8.2,0,0,0,10.682,4.621l.3.3L13,45.245l.885-.882L1.58,32.053Zm3.84,3.836,1.073,1.073a2.2,2.2,0,0,0-.052.455,2.085,2.085,0,0,0,2.083,2.083,2.14,2.14,0,0,0,.451-.052l1.073,1.073a3.415,3.415,0,0,1-1.524.368,3.449,3.449,0,0,1-3.1-5Z" transform="translate(0 -32.053)"/>
      </g>
    </g>
  </g>
</svg>
