<svg id="ic_arrowBack" xmlns="http://www.w3.org/2000/svg" width="18" height="17.725" viewBox="0 0 18 17.725">
  <path id="arrow_back_24dp_5F6368_FILL0_wght300_GRAD-25_opsz24" d="M205-750.725l6.455,6.454a.877.877,0,0,1,.267.628.857.857,0,0,1-.271.627.882.882,0,0,1-.63.276.844.844,0,0,1-.624-.276l-7.832-7.832a1.035,1.035,0,0,1-.245-.351,1.061,1.061,0,0,1-.078-.407,1.06,1.06,0,0,1,.078-.407,1.1,1.1,0,0,1,.245-.357L210.2-760.2a.862.862,0,0,1,.617-.263.871.871,0,0,1,.638.263.88.88,0,0,1,.272.632.88.88,0,0,1-.272.632L205-752.492h14.16a.847.847,0,0,1,.621.26.855.855,0,0,1,.259.627.845.845,0,0,1-.259.624.853.853,0,0,1-.621.256Z" transform="translate(-202.04 760.464)" fill="#2b40fb"/>
</svg>
