<svg xmlns="http://www.w3.org/2000/svg" width="35.726" height="35.88" viewBox="0 0 35.726 35.88"><defs><style>.a{fill:#fff;}</style></defs><path class="a" d="M279.56,115.386a.7.7,0,1,0-.7-.7A.7.7,0,0,0,279.56,115.386Z" transform="translate(-259.394 -105.997)"/><path class="a" d="M171.717,119.812a6.352,6.352,0,0,0,4.971-10.305.7.7,0,0,0-1.1.873,4.9,4.9,0,0,1,1.075,3.081,4.95,4.95,0,1,1-5.22-4.943.7.7,0,1,0-.075-1.4,6.352,6.352,0,0,0,.345,12.694Z" transform="translate(-153.853 -99.61)"/><path class="a" d="M33.729,4.881H29.519a11.325,11.325,0,0,0-1.233-1.295,2.43,2.43,0,0,0-3.432,0L23.783,4.658a10.313,10.313,0,0,0-1.729-.717V2.426A2.429,2.429,0,0,0,19.627,0H18.3a2.429,2.429,0,0,0-2.426,2.426V3.94a10.315,10.315,0,0,0-1.729.717L13.07,3.586a2.429,2.429,0,0,0-3.432,0A11.428,11.428,0,0,0,8.405,4.881H4.195a3.1,3.1,0,0,0-3.1,3.1V24.405a3.1,3.1,0,0,0,3.1,3.1H16.337l-.919,3.3H13.312a2.3,2.3,0,0,0-2.3,2.3v1.383H8.444a.7.7,0,1,0,0,1.4H29.48a.7.7,0,1,0,0-1.4H26.908V33.1a2.3,2.3,0,0,0-2.3-2.3H22.506l-.919-3.3H33.73a3.1,3.1,0,0,0,3.1-3.1V7.977a3.1,3.1,0,0,0-3.1-3.1Zm0,1.4a1.7,1.7,0,0,1,1.694,1.694V21.333h-5.5a2.432,2.432,0,0,0-.7-1.591l-1.071-1.071a10.307,10.307,0,0,0,.717-1.729c1.531,0,1.548.009,1.762-.013a2.43,2.43,0,0,0,2.179-2.414v-1.33a2.429,2.429,0,0,0-2.426-2.426H28.872a10.314,10.314,0,0,0-.717-1.729l1.071-1.071a2.423,2.423,0,0,0,.711-1.676ZM9.69,5.518l.94-.94a1.026,1.026,0,0,1,1.449,0l1.446,1.446a.7.7,0,0,0,.854.107,8.924,8.924,0,0,1,2.365-.981.7.7,0,0,0,.528-.679V2.426A1.026,1.026,0,0,1,18.3,1.4h1.33a1.026,1.026,0,0,1,1.025,1.025V4.47a.7.7,0,0,0,.528.679,8.922,8.922,0,0,1,2.365.981.7.7,0,0,0,.854-.107l1.446-1.446a1.026,1.026,0,0,1,1.45,0c.945.977,1.139,1.025,1.223,1.479a1.024,1.024,0,0,1-.283.91L26.789,8.413a.7.7,0,0,0-.107.854,8.924,8.924,0,0,1,.9,2.055q.045.154.085.31a.7.7,0,0,0,.679.528h2.044a1.026,1.026,0,0,1,1.025,1.025v1.33a1.026,1.026,0,0,1-1.025,1.025H28.342a.7.7,0,0,0-.679.528,8.922,8.922,0,0,1-.981,2.365q-.015.026-.028.052a.7.7,0,0,0,.135.8c1.285,1.369,1.67,1.468,1.739,2.046H9.4a1.015,1.015,0,0,1,.293-.6l1.446-1.446a.7.7,0,0,0,.107-.854,8.916,8.916,0,0,1-.981-2.365.7.7,0,0,0-.679-.528H7.539a1.026,1.026,0,0,1-1.025-1.025v-1.33A1.026,1.026,0,0,1,7.539,12.16H9.582a.7.7,0,0,0,.679-.528,8.917,8.917,0,0,1,.981-2.365.7.7,0,0,0-.107-.854A21.416,21.416,0,0,1,9.554,6.8,1.026,1.026,0,0,1,9.69,5.518Zm-5.495.765H7.987A2.425,2.425,0,0,0,8.7,7.958L9.77,9.029a10.318,10.318,0,0,0-.717,1.729H7.539a2.429,2.429,0,0,0-2.426,2.426v1.33a2.429,2.429,0,0,0,2.426,2.426H9.053a10.312,10.312,0,0,0,.717,1.729L8.7,19.742A2.432,2.432,0,0,0,8,21.333H2.5V7.977A1.7,1.7,0,0,1,4.195,6.283ZM25.506,33.1v1.383H12.418V33.1a.9.9,0,0,1,.894-.894h11.3A.9.9,0,0,1,25.506,33.1Zm-4.455-2.3H16.873l.919-3.3h2.34Zm14.373-6.395A1.7,1.7,0,0,1,33.729,26.1H4.195A1.7,1.7,0,0,1,2.5,24.405V22.734H35.424v1.671Z" transform="translate(-1.099)"/></svg>