<svg xmlns="http://www.w3.org/2000/svg" width="15.023" height="15.023" viewBox="0 0 15.023 15.023">
  <path id="inventory_2_24dp_E3E3E3_FILL1_wght300_GRAD0_opsz24" d="M102.22-844.977a1.378,1.378,0,0,1-1.011-.419,1.378,1.378,0,0,1-.419-1.011v-8.854a1.507,1.507,0,0,1-.57-.51,1.339,1.339,0,0,1-.221-.763v-2.037a1.377,1.377,0,0,1,.419-1.01,1.378,1.378,0,0,1,1.011-.419h12.165a1.378,1.378,0,0,1,1.011.419,1.377,1.377,0,0,1,.419,1.01v2.037a1.339,1.339,0,0,1-.221.763,1.507,1.507,0,0,1-.569.51v8.854a1.378,1.378,0,0,1-.419,1.011,1.378,1.378,0,0,1-1.011.419Zm-.791-11.313h12.165a.237.237,0,0,0,.175-.068.237.237,0,0,0,.068-.175v-2.037a.237.237,0,0,0-.068-.175.237.237,0,0,0-.175-.068H101.429a.237.237,0,0,0-.175.068.237.237,0,0,0-.068.175v2.037a.237.237,0,0,0,.068.175A.237.237,0,0,0,101.429-856.29Zm3.862,4.934h4.44v-1.133h-4.44Z" transform="translate(-100 860)" opacity="0.3"/>
</svg>
