<svg xmlns="http://www.w3.org/2000/svg" width="40" height="40" viewBox="0 0 40 40">
  <g id="Grupo_69947" data-name="Grupo 69947" transform="translate(-255 -296.167)">
    <circle id="Elipse_11780" data-name="Elipse 11780" cx="20" cy="20" r="20" transform="translate(255 296.167)" fill="#1a1a29" opacity="0.245"/>
    <circle id="Elipse_11779" data-name="Elipse 11779" cx="17.5" cy="17.5" r="17.5" transform="translate(258 299.167)" fill="#1a1a29" opacity="0.294"/>
    <g id="Grupo_66732" data-name="Grupo 66732" transform="matrix(0.719, -0.695, 0.695, 0.719, 261, 311.494)">
      <path id="Trazado_149714" data-name="Trazado 149714" d="M1.6,0h10.22a1.6,1.6,0,0,1,1.6,1.6v15.23a1.6,1.6,0,0,1-1.6,1.6H1.6a1.6,1.6,0,0,1-1.6-1.6V1.6A1.6,1.6,0,0,1,1.6,0Z" transform="translate(0 0)" fill="#f5f6fa"/>
      <path id="Trazado_149715" data-name="Trazado 149715" d="M3.206,7.214a.8.8,0,0,1-.8-.8v-.8H1.6a.8.8,0,0,1-.8-.8v-.2H.4a.4.4,0,0,1,0-.8H.8V.8A.8.8,0,0,1,1.6,0H9.218a.8.8,0,0,1,.8.8V3.807h.4a.4.4,0,0,1,0,.8h-.4v.2a.8.8,0,0,1-.8.8h-.8v.8a.8.8,0,0,1-.8.8Z" transform="translate(1.403 18.637)" fill="#f5f6fa"/>
    </g>
  </g>
</svg>
