<svg id="ic_cancel_fill" xmlns="http://www.w3.org/2000/svg" width="8" height="8" viewBox="0 0 8 8">
  <path id="cancel_24dp_5F6368_FILL1_wght300_GRAD-25_opsz24" d="M112.08-847.5l1.322,1.322a.29.29,0,0,0,.207.086.282.282,0,0,0,.211-.086.286.286,0,0,0,.088-.209.286.286,0,0,0-.088-.209L112.5-847.92l1.322-1.322a.289.289,0,0,0,.086-.207.282.282,0,0,0-.086-.211.286.286,0,0,0-.209-.088.286.286,0,0,0-.209.088l-1.322,1.322-1.322-1.322a.29.29,0,0,0-.207-.086.282.282,0,0,0-.211.086.286.286,0,0,0-.088.209.286.286,0,0,0,.088.209l1.322,1.322-1.322,1.322a.29.29,0,0,0-.086.207.282.282,0,0,0,.086.211.286.286,0,0,0,.209.088.286.286,0,0,0,.209-.088Zm0,3.581a3.894,3.894,0,0,1-1.56-.315,4.043,4.043,0,0,1-1.271-.856,4.048,4.048,0,0,1-.855-1.27,3.887,3.887,0,0,1-.315-1.558,3.893,3.893,0,0,1,.315-1.56,4.043,4.043,0,0,1,.856-1.271,4.047,4.047,0,0,1,1.27-.855,3.886,3.886,0,0,1,1.558-.315,3.894,3.894,0,0,1,1.56.315,4.044,4.044,0,0,1,1.271.856,4.047,4.047,0,0,1,.855,1.27,3.887,3.887,0,0,1,.315,1.558,3.894,3.894,0,0,1-.315,1.56,4.043,4.043,0,0,1-.856,1.271,4.047,4.047,0,0,1-1.27.855A3.887,3.887,0,0,1,112.081-843.92Z" transform="translate(-108.08 851.92)" fill="#fff"/>
</svg>
