<svg id="ic_eyePassword_fill" xmlns="http://www.w3.org/2000/svg" width="18" height="12.329" viewBox="0 0 18 12.329">
  <path id="visibility_24dp_5F6368_FILL1_wght300_GRAD-25_opsz24" d="M89.73-763.81a3.434,3.434,0,0,0,2.525-1.041,3.444,3.444,0,0,0,1.039-2.527,3.434,3.434,0,0,0-1.041-2.525,3.444,3.444,0,0,0-2.527-1.039A3.434,3.434,0,0,0,87.2-769.9a3.444,3.444,0,0,0-1.039,2.527,3.434,3.434,0,0,0,1.041,2.525A3.444,3.444,0,0,0,89.73-763.81Zm0-1.169a2.317,2.317,0,0,1-1.7-.7,2.306,2.306,0,0,1-.7-1.7,2.317,2.317,0,0,1,.7-1.7,2.306,2.306,0,0,1,1.7-.7,2.317,2.317,0,0,1,1.7.7,2.306,2.306,0,0,1,.7,1.7,2.317,2.317,0,0,1-.7,1.7A2.306,2.306,0,0,1,89.73-764.978Zm0,3.767a9.208,9.208,0,0,1-5.1-1.491,11.2,11.2,0,0,1-3.7-3.914,1.326,1.326,0,0,1-.159-.373,1.61,1.61,0,0,1-.046-.387,1.6,1.6,0,0,1,.046-.386,1.328,1.328,0,0,1,.159-.372,11.2,11.2,0,0,1,3.7-3.914,9.2,9.2,0,0,1,5.1-1.491,9.208,9.208,0,0,1,5.1,1.491,11.2,11.2,0,0,1,3.7,3.913,1.36,1.36,0,0,1,.161.373,1.562,1.562,0,0,1,.048.389,1.542,1.542,0,0,1-.048.387,1.365,1.365,0,0,1-.161.371,11.207,11.207,0,0,1-3.7,3.913A9.2,9.2,0,0,1,89.729-761.211Z" transform="translate(-80.73 773.54)" fill="#5f6368"/>
</svg>
