<svg xmlns="http://www.w3.org/2000/svg" width="154.831" height="130.118" viewBox="0 0 154.831 130.118">
  <g id="Grupo_69876" data-name="Grupo 69876" transform="translate(21105.311 6210.452)">
    <path id="Sustracción_1" data-name="Sustracción 1" d="M123.024,132.666a19.778,19.778,0,0,1-7.576-1.433,20.226,20.226,0,0,1-10.608-10.641,19.852,19.852,0,0,1-1.426-7.571H49.686a19.861,19.861,0,0,1-1.435,7.6,19.3,19.3,0,0,1-4.305,6.337,19.49,19.49,0,0,1-6.353,4.279,19.916,19.916,0,0,1-7.584,1.427,19.774,19.774,0,0,1-7.575-1.433,20.213,20.213,0,0,1-10.607-10.641,19.857,19.857,0,0,1-1.426-7.571H0V38.786A11.868,11.868,0,0,1,12.134,26.653H77.87c-.039.606-.06,1.227-.06,1.848a28.012,28.012,0,0,0,40,25.306h11.027l26,34.951v24.264H142.7a19.759,19.759,0,0,1-1.434,7.571,20.3,20.3,0,0,1-10.658,10.641A19.836,19.836,0,0,1,123.024,132.666Zm.033-31.777a12.058,12.058,0,1,0,8.6,3.532A11.756,11.756,0,0,0,123.057,100.889Zm-93.015,0a12.133,12.133,0,1,0,0,24.267,12.133,12.133,0,1,0,0-24.267ZM111.5,61.317V90.491h35.385l-22.1-29.174Z" transform="translate(-21105.311 -6213)" fill="#e0e1e9"/>
    <g id="ic_cancel_fill" transform="translate(-21023.105 -6210.452)">
      <path id="cancel_24dp_5F6368_FILL1_wght300_GRAD-25_opsz24" d="M132.185-825.293l7.967,7.967a1.742,1.742,0,0,0,1.249.518,1.7,1.7,0,0,0,1.274-.518,1.724,1.724,0,0,0,.531-1.262,1.724,1.724,0,0,0-.531-1.261l-7.967-7.967,7.967-7.966a1.744,1.744,0,0,0,.518-1.249,1.7,1.7,0,0,0-.518-1.274,1.724,1.724,0,0,0-1.262-.531,1.724,1.724,0,0,0-1.261.531l-7.967,7.967-7.967-7.967a1.743,1.743,0,0,0-1.249-.518,1.7,1.7,0,0,0-1.274.518,1.725,1.725,0,0,0-.531,1.262,1.724,1.724,0,0,0,.531,1.261l7.967,7.966-7.967,7.967a1.744,1.744,0,0,0-.518,1.249,1.7,1.7,0,0,0,.518,1.274,1.724,1.724,0,0,0,1.262.531,1.724,1.724,0,0,0,1.261-.531Zm.006,21.582a23.463,23.463,0,0,1-9.4-1.9,24.363,24.363,0,0,1-7.658-5.159,24.392,24.392,0,0,1-5.153-7.651,23.421,23.421,0,0,1-1.9-9.388,23.463,23.463,0,0,1,1.9-9.4,24.361,24.361,0,0,1,5.159-7.658,24.389,24.389,0,0,1,7.651-5.153,23.426,23.426,0,0,1,9.389-1.9,23.459,23.459,0,0,1,9.4,1.9,24.359,24.359,0,0,1,7.658,5.159,24.388,24.388,0,0,1,5.153,7.651,23.421,23.421,0,0,1,1.9,9.388,23.464,23.464,0,0,1-1.9,9.4,24.364,24.364,0,0,1-5.159,7.658,24.39,24.39,0,0,1-7.651,5.153A23.42,23.42,0,0,1,132.19-803.711Z" transform="translate(-108.08 851.92)" fill="#e0e1e9"/>
    </g>
  </g>
</svg>
