<svg id="ic_eyePassword_fill" xmlns="http://www.w3.org/2000/svg" width="18" height="15.962" viewBox="0 0 18 15.962">
  <path id="visibility_off_24dp_5F6368_FILL1_wght300_GRAD-25_opsz24" d="M96.564-799.916l-3.122-3.1a8.142,8.142,0,0,1-1.634.453,10.3,10.3,0,0,1-1.705.14,9.243,9.243,0,0,1-5.1-1.486,10.985,10.985,0,0,1-3.68-3.907,1.292,1.292,0,0,1-.159-.375,1.672,1.672,0,0,1-.046-.393,1.582,1.582,0,0,1,.051-.4,1.256,1.256,0,0,1,.163-.37q.539-.884,1.145-1.718a7.661,7.661,0,0,1,1.41-1.479l-2.034-2.084a.6.6,0,0,1-.18-.427.6.6,0,0,1,.194-.45.6.6,0,0,1,.438-.184.6.6,0,0,1,.438.184l14.706,14.7a.622.622,0,0,1,.185.444.6.6,0,0,1-.2.451.6.6,0,0,1-.442.181A.607.607,0,0,1,96.564-799.916Zm-6.462-5.1a4.424,4.424,0,0,0,.594-.039,1.978,1.978,0,0,0,.559-.163l-4.514-4.5a2.313,2.313,0,0,0-.159.553,3.833,3.833,0,0,0-.043.582,3.437,3.437,0,0,0,1.039,2.524A3.437,3.437,0,0,0,90.1-805.018Zm0-9.723a9.3,9.3,0,0,1,5.123,1.493,10.883,10.883,0,0,1,3.686,3.931,1.875,1.875,0,0,1,.151.355,1.272,1.272,0,0,1,.059.381,1.431,1.431,0,0,1-.052.381,1.61,1.61,0,0,1-.144.355,12.374,12.374,0,0,1-.935,1.476,9.992,9.992,0,0,1-1.154,1.3.8.8,0,0,1-.623.239.908.908,0,0,1-.623-.284l-1.881-1.868a.626.626,0,0,1-.17-.3.718.718,0,0,1,.009-.36,2.443,2.443,0,0,0,.1-.463,4.548,4.548,0,0,0,.024-.477,3.437,3.437,0,0,0-1.039-2.524,3.437,3.437,0,0,0-2.524-1.039,3.7,3.7,0,0,0-.469.029,2.715,2.715,0,0,0-.453.1.851.851,0,0,1-.37.014.568.568,0,0,1-.314-.167l-.886-.886a.851.851,0,0,1-.247-.854.8.8,0,0,1,.615-.62,9.071,9.071,0,0,1,1.051-.161Q89.562-814.741,90.1-814.741Zm1.7,4.466a2.623,2.623,0,0,1,.482.721,2.369,2.369,0,0,1,.21.842.186.186,0,0,1-.13.208.228.228,0,0,1-.256-.063L90.1-810.577a.213.213,0,0,1-.059-.256.219.219,0,0,1,.217-.141,2.488,2.488,0,0,1,.84.2A2.227,2.227,0,0,1,91.8-810.275Z" transform="translate(-81.12 815.69)" fill="#5f6368"/>
</svg>
