<svg id="ic_home_menu_nav" xmlns="http://www.w3.org/2000/svg" width="13.768" height="14.926" viewBox="0 0 13.768 14.926">
  <path id="home_FILL1_wght500_GRAD0_opsz24_1_" data-name="home_FILL1_wght500_GRAD0_opsz24 (1)" d="M151.869-814.624v-7.417a1.881,1.881,0,0,1,.2-.853,1.829,1.829,0,0,1,.561-.666l4.975-3.709a1.851,1.851,0,0,1,1.148-.383,1.851,1.851,0,0,1,1.147.383l4.975,3.709a1.829,1.829,0,0,1,.561.666,1.882,1.882,0,0,1,.2.853v7.417a1.824,1.824,0,0,1-.558,1.343,1.846,1.846,0,0,1-1.351.555h-2.3a.925.925,0,0,1-.678-.275.914.914,0,0,1-.276-.674v-4.151a.914.914,0,0,0-.276-.674.925.925,0,0,0-.678-.275h-1.528a.925.925,0,0,0-.678.275.914.914,0,0,0-.276.674v4.151a.914.914,0,0,1-.276.674.925.925,0,0,1-.678.275h-2.3a1.846,1.846,0,0,1-1.351-.555A1.824,1.824,0,0,1,151.869-814.624Z" transform="translate(-151.869 827.652)" fill="#fff"/>
</svg>
