<svg xmlns="http://www.w3.org/2000/svg" width="22.438" height="23.733" viewBox="0 0 22.438 23.733">
  <g id="ic_bell_notification" transform="matrix(0.921, 0.391, -0.391, 0.921, 7.357, 0)">
    <path id="Trazado_38" data-name="Trazado 38" d="M336.43,447.7a2.619,2.619,0,1,1-4.8,2.1,2.591,2.591,0,0,1-.215-1.087l4.357-1.911a2.605,2.605,0,0,1,.654.894Z" transform="translate(-324.4 -432.549)" fill="#323436"/>
    <path id="Trazado_39" data-name="Trazado 39" d="M106.885,9.865A5.991,5.991,0,0,1,107.914,3.3,1.91,1.91,0,0,1,107.739,3,2.146,2.146,0,0,1,108.86.164a2.194,2.194,0,0,1,2.876,1.109,1.956,1.956,0,0,1,.1.317,6.416,6.416,0,0,1,5.743,3.685s1.753,3.98,3.679,4.3c.059,0,1.092.029,1.407.773.3.7-.315,1.646-1.378,2.1l-11.521,4.909c-1.063.453-2.237.271-2.488-.449a1.585,1.585,0,0,1,.348-1.43c1.087-1.651-.739-5.608-.739-5.608Z" transform="translate(-106.354 0.019)" fill="#323436"/>
  </g>
</svg>
