<svg xmlns="http://www.w3.org/2000/svg" width="38" height="38" viewBox="0 0 38 38"><defs><style>.a{fill:#fff;}</style></defs><path class="a" d="M37.258,2.969H35.223a.742.742,0,1,0,0,1.484h1.292v23.3H15.792V16.052a3.054,3.054,0,0,0,1.847-.754l1.952-1.712a2.248,2.248,0,0,0-2.813-3.5l-.873.641-.117-.117c0-.023,0-.046,0-.07V4.453H29.286a.742.742,0,0,0,0-1.484H15.049a.742.742,0,0,0-.742.742V9.124l-.517-.519a6.756,6.756,0,0,0-3.326-1.834,3.822,3.822,0,0,0,.946-2.519V3.84a3.84,3.84,0,1,0-7.679,0v.413A3.82,3.82,0,0,0,4.57,6.644,5.187,5.187,0,0,0,0,11.787v8.079a2.226,2.226,0,0,0,2.969,2.1v3.789a.742.742,0,0,0,1.484,0V19.628h6.234v15.7a1.188,1.188,0,0,1-2.375,0V24.387a.742.742,0,0,0-1.484,0V35.328a1.188,1.188,0,0,1-2.375,0V31.691a.742.742,0,0,0-1.484,0v3.637a2.67,2.67,0,0,0,4.6,1.845,2.67,2.67,0,0,0,4.6-1.845V19.009c0-.021,0-.042,0-.062s0-.041,0-.062V13.878l1.27,1.277a3.05,3.05,0,0,0,.865.609V28.5a.742.742,0,0,0,.742.742H37.258A.742.742,0,0,0,38,28.5V3.711A.742.742,0,0,0,37.258,2.969ZM5.215,3.84a2.355,2.355,0,1,1,4.71,0v.413A2.357,2.357,0,0,1,7.616,6.607H7.525a2.357,2.357,0,0,1-2.31-2.354V3.84Zm6.741,7.716a.742.742,0,0,0-1.268.523v6.064H4.453V13.582a.742.742,0,1,0-1.484,0v6.284a.742.742,0,0,1-1.485,0V11.787a3.7,3.7,0,0,1,3.7-3.7H6.828v2.448a.742.742,0,1,0,1.484,0V8.091h.66a5.284,5.284,0,0,1,3.767,1.563L15.3,12.226a.742.742,0,0,0,.965.074l1.387-1.019a.764.764,0,0,1,.956,1.19L16.66,14.182a1.586,1.586,0,0,1-2.165-.074Z" transform="translate(0)"/><path class="a" d="M257.393,209.264H253.83a.742.742,0,0,0-.742.742v1.23h-2.82a.742.742,0,0,0-.742.742v1.715h-2.82a.742.742,0,0,0-.742.742v2.9h-1.482a.742.742,0,0,0,0,1.484h15.135a.742.742,0,0,0,0-1.484h-1.482v-7.328A.742.742,0,0,0,257.393,209.264Zm-9.945,5.913h2.078v2.157h-2.078Zm3.563-.742v-1.715h2.078v4.614H251.01Zm3.562,2.9v-6.586h2.078v6.586Z" transform="translate(-225.649 -193.733)"/><path class="a" d="M40.742,378.484a.742.742,0,1,0-.525-.217A.746.746,0,0,0,40.742,378.484Z" transform="translate(-37.031 -349.02)"/><path class="a" d="M283.863,93.881,279.949,97.8l-1.366-1.366a.742.742,0,0,0-1.05,0l-3.612,3.612a.742.742,0,1,0,1.05,1.05L278.057,98l1.366,1.366a.742.742,0,0,0,1.05,0l4.439-4.439a.742.742,0,0,0,1.474-.117V93.149a.742.742,0,0,0-.742-.742H283.98a.742.742,0,0,0-.117,1.474Z" transform="translate(-253.389 -85.549)"/><path class="a" d="M425.332,41.484a.742.742,0,1,0-.525-.217A.748.748,0,0,0,425.332,41.484Z" transform="translate(-393.077 -37.031)"/></svg>