<svg id="ic_sign_off" xmlns="http://www.w3.org/2000/svg" width="28" height="28" viewBox="0 0 28 28">
  <g id="Grupo_23180" data-name="Grupo 23180" transform="translate(3.348 3.348)">
    <path id="Trazado_98803" data-name="Trazado 98803" d="M8,6.75H18.216a1.816,1.816,0,0,1,1.816,1.816V22.642a1.816,1.816,0,0,1-1.816,1.816H8Z" transform="translate(-6.184 -6.069)" fill="#f3f3f1"/>
    <path id="Trazado_98804" data-name="Trazado 98804" d="M14.469,9.7V26.048a1.136,1.136,0,0,1-1.135,1.135,1.214,1.214,0,0,1-.363-.054L7.522,25.312a1.15,1.15,0,0,1-.772-1.081V7.885A1.136,1.136,0,0,1,7.885,6.75a1.214,1.214,0,0,1,.363.054L13.7,8.621A1.15,1.15,0,0,1,14.469,9.7Z" transform="translate(-6.069 -6.069)" fill="#fa5252"/>
    <path id="Trazado_98805" data-name="Trazado 98805" d="M9.565,25.312a1.15,1.15,0,0,1-.772-1.081V7.885a1.129,1.129,0,0,1,.325-.791l-.87-.29a1.214,1.214,0,0,0-.363-.054A1.136,1.136,0,0,0,6.75,7.885V24.232a1.15,1.15,0,0,0,.772,1.081l5.449,1.816a1.214,1.214,0,0,0,.363.054,1.126,1.126,0,0,0,.81-.344Z" transform="translate(-6.069 -6.069)" fill="#de2626"/>
    <path id="Trazado_98811" data-name="Trazado 98811" d="M19.75,15.75h8.627v1.362H19.75Z" transform="translate(-7.263 -6.896)"/>
    <path id="Trazado_98812" data-name="Trazado 98812" d="M25.933,19.994l-.963-.963,2.924-2.924L24.97,13.183l.964-.964,3.405,3.405a.681.681,0,0,1,0,.964Z" transform="translate(-7.743 -6.572)"/>
    <path id="Trazado_98813" data-name="Trazado 98813" d="M13.265,27.8a1.874,1.874,0,0,1-.564-.084L7.238,25.89A1.833,1.833,0,0,1,6,24.163V7.816A1.818,1.818,0,0,1,7.816,6a1.873,1.873,0,0,1,.564.084l5.463,1.821a1.833,1.833,0,0,1,1.238,1.727V25.979A1.818,1.818,0,0,1,13.265,27.8ZM7.816,7.362a.455.455,0,0,0-.454.454V24.163a.472.472,0,0,0,.315.438l5.44,1.813a.486.486,0,0,0,.148.02.455.455,0,0,0,.454-.454V9.633a.472.472,0,0,0-.315-.438L7.964,7.382a.486.486,0,0,0-.148-.02Z" transform="translate(-6 -6)"/>
    <path id="Trazado_98814" data-name="Trazado 98814" d="M20.714,12.584H19.352V8.5a1.137,1.137,0,0,0-1.135-1.135H8V6H18.216a2.5,2.5,0,0,1,2.5,2.5Z" transform="translate(-6.184 -6)"/>
    <path id="Trazado_98815" data-name="Trazado 98815" d="M18.883,26.334H15.25V24.972h3.633a1.137,1.137,0,0,0,1.135-1.135V19.75H21.38v4.087A2.5,2.5,0,0,1,18.883,26.334Z" transform="translate(-6.85 -7.263)"/>
  </g>
  <rect id="Rectángulo_12095" data-name="Rectángulo 12095" width="28" height="28" fill="none"/>
</svg>
