<svg id="ic_cancel_fill" xmlns="http://www.w3.org/2000/svg" width="10" height="10" viewBox="0 0 10 10">
  <path id="cancel_24dp_5F6368_FILL1_wght300_GRAD-25_opsz24" d="M113.08-846.4l1.653,1.653a.362.362,0,0,0,.259.108.352.352,0,0,0,.264-.108.358.358,0,0,0,.11-.262.358.358,0,0,0-.11-.262L113.6-846.92l1.653-1.653a.361.361,0,0,0,.108-.259.352.352,0,0,0-.108-.264.357.357,0,0,0-.262-.11.357.357,0,0,0-.262.11l-1.653,1.653-1.652-1.653a.362.362,0,0,0-.259-.108.352.352,0,0,0-.264.108.358.358,0,0,0-.11.262.357.357,0,0,0,.11.261l1.653,1.653-1.653,1.652a.362.362,0,0,0-.108.259.352.352,0,0,0,.108.264.358.358,0,0,0,.262.11.358.358,0,0,0,.262-.11Zm0,4.477a4.868,4.868,0,0,1-1.95-.394,5.056,5.056,0,0,1-1.589-1.07,5.061,5.061,0,0,1-1.069-1.587,4.858,4.858,0,0,1-.394-1.947,4.867,4.867,0,0,1,.394-1.95,5.053,5.053,0,0,1,1.07-1.589,5.057,5.057,0,0,1,1.587-1.069,4.858,4.858,0,0,1,1.947-.394,4.866,4.866,0,0,1,1.95.394,5.054,5.054,0,0,1,1.589,1.07,5.06,5.06,0,0,1,1.069,1.587,4.858,4.858,0,0,1,.394,1.948,4.867,4.867,0,0,1-.394,1.95,5.055,5.055,0,0,1-1.07,1.589,5.059,5.059,0,0,1-1.587,1.069A4.858,4.858,0,0,1,113.081-841.92Z" transform="translate(-108.08 851.92)" fill="#eb1c24"/>
</svg>
