<svg id="pass" xmlns="http://www.w3.org/2000/svg" width="23" height="23" viewBox="0 0 23 23">
  <g id="_483408" data-name="483408" transform="translate(5.486 3.248)">
    <g id="Grupo_4273" data-name="Grupo 4273">
      <path id="Trazado_52241" data-name="Trazado 52241" d="M75.221,5.771h-.962V4.488a4.488,4.488,0,0,0-8.977,0V5.771h-.962A.32.32,0,0,0,64,6.091v8.015a1.284,1.284,0,0,0,1.282,1.282h8.977a1.284,1.284,0,0,0,1.282-1.282V6.091A.32.32,0,0,0,75.221,5.771Zm-4.49,6.7a.321.321,0,0,1-.319.356H69.13a.321.321,0,0,1-.319-.356l.2-1.819a1.268,1.268,0,0,1-.525-1.031,1.282,1.282,0,1,1,2.565,0,1.268,1.268,0,0,1-.525,1.031Zm1.6-6.7h-5.13V4.488a2.565,2.565,0,0,1,5.13,0Z" transform="translate(-64)" fill="#030303"/>
    </g>
  </g>
  <rect id="Rectángulo_6166" data-name="Rectángulo 6166" width="23" height="23" fill="none"/>
</svg>
