<svg xmlns="http://www.w3.org/2000/svg" width="158" height="158" viewBox="0 0 158 158">
  <g id="Grupo_69863" data-name="Grupo 69863" transform="translate(-101 -283)">
    <circle id="Elipse_11768" data-name="Elipse 11768" cx="79" cy="79" r="79" transform="translate(101 283)" fill="#eb1c24" opacity="0.5"/>
    <g id="Grupo_65154" data-name="Grupo 65154" transform="translate(121.284 303.284)">
      <g id="Elipse_11767" data-name="Elipse 11767" transform="translate(20.716 16.716)" fill="#fff" stroke="#707070" stroke-width="1">
        <ellipse cx="40.5" cy="44" rx="40.5" ry="44" stroke="none"/>
        <ellipse cx="40.5" cy="44" rx="40" ry="43.5" fill="none"/>
      </g>
      <g id="ic_complete_check" transform="translate(0 0)">
        <path id="_93ebda1b64c53d147d75cea475d7058b" data-name="93ebda1b64c53d147d75cea475d7058b" d="M60.963,119.927A58.963,58.963,0,1,0,2,60.963,58.962,58.962,0,0,0,60.963,119.927ZM81.813,40.114a5.9,5.9,0,1,1,8.337,8.349L56.818,81.8l-.024.024a5.879,5.879,0,0,1-8.337,0l-.024-.024L31.776,65.138A5.9,5.9,0,1,1,40.115,56.8L52.626,69.307,81.813,40.12Z" transform="translate(-2 -2)" fill="#eb1c24" fill-rule="evenodd"/>
      </g>
    </g>
  </g>
</svg>
