<svg xmlns="http://www.w3.org/2000/svg" width="422.176" height="395.388" viewBox="0 0 422.176 395.388"><defs><style>.a,.u{fill:#fff952;}.a{opacity:0.299;}.b{fill:#8271a8;}.ai,.b{opacity:0.7;}.ae,.as,.b{mix-blend-mode:multiply;}.ae,.as,.b,.t{isolation:isolate;}.c{fill:#603e91;}.aj,.d,.j{fill:#ffb287;}.ae,.e,.t{fill:#e5785c;}.f{fill:#323134;}.g{fill:#d33939;}.as,.au,.h{fill:#47454c;}.i{fill:#a162fa;}.j{stroke:#fff;stroke-width:6.554px;}.ab,.j{stroke-miterlimit:10;}.k{fill:#8c9899;}.ai,.l{fill:#fff;}.m{fill:#a160fc;}.n{fill:#6779e3;}.o{fill:#f2e7e1;}.p{fill:#c4bd30;}.q{fill:#cdc750;}.r{fill:#8e3925;}.s{fill:#a34c31;}.t{mix-blend-mode:darken;}.v{fill:#dbd64d;}.w{fill:#cdc8d6;}.x{fill:#a160ff;}.y{fill:#965beb;}.z{fill:#f58d6c;}.aa{fill:#422b27;}.ab,.ac{fill:none;stroke-linecap:round;}.ab{stroke:#8e3925;stroke-width:5.462px;}.ac{stroke:#e5785c;stroke-linejoin:round;stroke-width:4.37px;}.ad{fill:#d36853;}.ae{opacity:0.6;}.af{fill:#c1bfe2;}.ag{fill:#4f4351;}.ah{fill:#6fcffb;}.aj,.au{opacity:0.8;}.ak{fill:#f7bfc2;}.al{fill:#a8bdcc;}.am{fill:#8a9099;}.an{fill:#5c5866;}.ao{fill:#7fb4dd;opacity:0.2;}.ap{fill:#b9bac0;}.aq{fill:#6b7680;}.ar{fill:#6d7d84;}.as{opacity:0.3;}.at{fill:#646870;}.av{fill:#cad8e5;}.aw{fill:#c17840;}.ax{fill:#8e2b30;}.ay{fill:#ff6464;}.az{fill:#3bbcf4;}</style></defs><path class="a" d="M435.415,480.431a187.2,187.2,0,0,0,46.237-123.453c0-103.791-84.14-187.93-187.93-187.93s-187.93,84.139-187.93,187.93a187.2,187.2,0,0,0,46.237,123.453Z" transform="translate(-71.631 -124.141)"/><g transform="translate(0 387.002)"><rect class="b" width="413.324" height="8.385" rx="4.193"/></g><g transform="translate(12.337 0)"><g transform="translate(74.301)"><path class="c" d="M472.573,450.046c2.711,1.284,5.921,2.758,5.921,4.8s-3.638,3.756-13.553,1.617-12.127-7.062-10.415-7.918,9.034-.714,9.034-.714Z" transform="translate(-324.579 -257.291)"/><g transform="translate(111.813 82.968)"><path class="d" d="M516.554,325.7a7.7,7.7,0,0,1-7.4,5.6,7.607,7.607,0,0,1-2.116-.3c-.063-.015-3.693-1.049-8.959-2.622-3.954-1.185-8.839-2.669-13.817-4.257-24.714-7.872-27.9-10.557-29.431-11.853-3.207-2.705-5.987-8.17-13.1-23.078-2.309-4.843-4.957-10.39-7.637-15.641-4.09-8.013-8.264-15.331-11.435-18.383a7.7,7.7,0,1,1,10.677-11.105c7.272,6.99,15.259,23.727,22.306,38.494,3.181,6.676,7.5,15.734,9.251,18.006,4.367,2.748,27.206,10.171,46.361,15.62A7.7,7.7,0,0,1,516.554,325.7Z" transform="translate(-420.293 -241.909)"/></g><g transform="translate(7.357 247.506)"><path class="d" d="M304.232,566.065c-.907,1.8-1.775,3.475-2.631,5.033a60.628,60.628,0,0,1-3.937,6.374,26.967,26.967,0,0,1-6.768,6.751c-9.793,6.636-24.635,7.84-33.458,7.926l-.822.006c-.753.005-1.478.011-2.18.011a123.946,123.946,0,0,1-20.463-1.473c-1.866-.262-3.8-.536-6.038-.787a8.559,8.559,0,0,1,1.911-17.011c2.483.28,4.543.571,6.529.85a111,111,0,0,0,20.081,1.29l.822-.006c5.735-.052,11.687-1.21,13.1-2.077a4.8,4.8,0,0,0,1.084-1.084c1.974-2.494,4.907-8.257,6.939-12.3,2.129-4.222,4.474-2.71,8.7-.587a28.623,28.623,0,0,0,5.849,1.649C298.7,561.848,305.733,563.092,304.232,566.065Z" transform="translate(-220.332 -556.885)"/><path class="e" d="M348.347,571.1a60.633,60.633,0,0,1-3.937,6.374c-5.553,1.781-14.084,2.328-26.2-5.6,1.974-2.494,4.907-8.257,6.939-12.3,2.129-4.222,4.474-2.71,8.7-.587a28.623,28.623,0,0,0,5.849,1.649Z" transform="translate(-267.078 -556.885)"/></g><path class="f" d="M338.1,449.838c-2.843.937-3.058,8.112-2.121,10.955l7.245,21.995a4.191,4.191,0,0,0,6.382,2.389l38.48-9.061c5.08-1.673,23.391-21.154,18.964-34.593l-8.1-6a5.477,5.477,0,0,0-6.887-3.462Z" transform="translate(-267.971 -249.631)"/><path class="f" d="M318.286,488.062a3.78,3.78,0,0,1,.466-1.667l5.539-9.071c6.223-13.067-4.053-24.711-3.842-39.382.133-9.3,24.906-19.085,33.928-21.364s14.372-15.261,16.651-6.239c5.615,22.218,12.325,38.337,3.772,58.389-4.5,10.55-26.349,34.335-26.349,34.335-2.088,3.7-10.411,2.984-18.6-1.616l-.021-.011c-.941-.523-1.841-1.083-2.689-1.661-4.564-3.1-7.721-6.768-8.606-9.827A5.589,5.589,0,0,1,318.286,488.062Z" transform="translate(-259.756 -237.88)"/><path class="g" d="M405.65,457.842c0,3.911-.737,11.221-5.684,16.468s-16.268-8.234-16.268-8.234l4.142-8.239Z" transform="translate(-291.001 -262.072)"/><path class="h" d="M322.465,450.795V455c0,.856,0,1.7.006,2.518.006,2.446.028-5.2.138-3.088.508,10.233,1.06,13.772,13.881,23.8,1.644,1.286,3.89,3.529,6.249,5.583,1.993,1.723,4.39,4.17,7.715,7.307l9.2-14.729s18.7-3.8,9.538-13.591q-2.312-2.468-4.518-4.434a44.04,44.04,0,0,0-5.257-4.059V454.3c-5.263-3.407-10.189-4.539-15.044-3.5a46.109,46.109,0,0,1-9.195.734A126.134,126.134,0,0,1,322.465,450.795Z" transform="translate(-261.755 -258.531)"/><g transform="translate(60.71 78.436)"><path class="i" d="M393.946,255.973l-4.7,89.844s-18.261,3.287-35.683,4.885c-2.431.228-4.851.422-7.2.565-12.851.788-23.664.189-23.893-4.034a1.1,1.1,0,0,1-.006-.137c0-10.135,2.26-12.281,4.366-19.054.028-.1.057-.194.091-.29,1.25-4.115,2.442-9.941,3.053-20.15V254.872c0-12,2.049-18.187,9.787-20.475.377-.12.771-.223,1.17-.32a36.7,36.7,0,0,1,8.229-.776l24.492,2.473C383.366,235.848,393.946,242.671,393.946,255.973Z" transform="translate(-322.466 -233.266)"/><g transform="translate(27.833)"><path class="j" d="M378.866,233.264h17.24c1.17.039,15.429,3.63,16.664,16.575.691,7.244,1.409,11.788-9.928,11.788h-1.413c-9.488,0-10.835-7.188-12.608-14.1-2.577-10.044-4.2-11.931-6.8-13.313C379.685,232.971,378.866,233.264,378.866,233.264Z" transform="translate(-377.237 -233.234)"/><path class="d" d="M375.942,233.3h-.195S375.818,233.293,375.942,233.3Z" transform="translate(-375.747 -233.263)"/></g></g><g transform="translate(75.948 196.453)"><path class="k" d="M407.258,504.629c-4.054,5.992-10.377,11.525-12.68,11.658-4.44.254-4.728,3.142-8.234-.133-.574-.541-5.412-5.462-6.008-6.019-8.836-8.207-15.286-14.215-19.163-17.86-1.745-1.64-2.844-2.684-3.5-3.319-.453-.43-.756-.729-.939-.916a16.775,16.775,0,0,1-.652-23.411c5.407-5.925,15.706-8.223,24.128-.817.348.3.69.613.69.613a17.318,17.318,0,0,1,1.662,1.718c1.226,1.16,3.2,3.021,6.39,6,3.3,3.082,7.9,7.361,14.3,13.309.63.58,5.527,5.673,6.048,6.313C411.913,494.974,410.549,499.769,407.258,504.629Z" transform="translate(-351.636 -459.154)"/><path class="h" d="M423.722,511.1l-7.875.919-4.365-6.608c-5.267-4.394-21.879-19.642-24.761-22.793-1.17-1.278-.588-4.051,1.164-6.34l.017-.017c2.551-3.327,7.567-5.621,13.239-.816,1.2,1.016,6.523-.5,8.143.588a34.687,34.687,0,0,1,2.95,3.452c4.942,6.34,13.091,18.255,13.53,18.746C428.43,501.225,427.015,506.235,423.722,511.1Z" transform="translate(-368.102 -465.621)"/><path class="f" d="M415.861,481.776c-1.989-2.616-5.6-2.222-12.951-3.862-9.984-2.227-11.778-3.621-13.37-1.977,2.671-4.444,7.567-5.621,13.239-.816,1.2,1.016,6.523-.5,8.143.588C411.589,476.33,415.369,478.864,415.861,481.776Z" transform="translate(-369.739 -465.299)"/></g><path class="f" d="M442.323,524.67c.109,3.156-1.723,7.59-5.056,11.921-.616.81-1.295,1.615-2.014,2.4l-.023.017a34.543,34.543,0,0,1-4.936,4.48c-.479.354-.959.69-1.432.992-4.4,2.876-8.537,3.727-10.637,1.821-1.935-1.78-1.666-5.507.342-9.724a26.016,26.016,0,0,1,1.324-2.454,34.548,34.548,0,0,1,3.977-5.29.9.9,0,0,1,.12-.137c.759-.828,1.54-1.609,2.328-2.323.5-.463,1.141-.528,1.649-.945.011-.006.4.38.19-.143a26.924,26.924,0,0,1,9.322-4.887.754.754,0,0,1,.228-.017,4.317,4.317,0,0,1,1.779.25c.2.08.487.549.909.937s1.29.891,1.507,1.444A4.612,4.612,0,0,1,442.323,524.67Z" transform="translate(-306.863 -291.94)"/><path class="d" d="M463.783,598.58a38.188,38.188,0,0,1-4.154,1.193c-3.721,0-2.785,6.357-4.206,2.739-3.122-7.955-6.215-26.09-9-39.369-1.569-7.475-10.061-14.449-16.047-18.666-.388-.274-.816-.576-1.267-.907-3.2-2.323-7.71-5.8-9.028-7a26,26,0,0,1,1.324-2.454,34.557,34.557,0,0,1,3.977-5.29.893.893,0,0,1,.12-.137c.759-.828,1.541-1.609,2.328-2.323.5-.463,9.239-5.753,11.162-5.975.017,0,.04-.006.057-.006.063-.006.114-.011.171-.011a5.611,5.611,0,0,1,1.787.194c.844.764,1.672,1.518,2.477,2.248,14.5,13.165,16.531,16.035,18.381,21.08.884,2.379.531,2.7,3.361,17.08,2.46,12.5,3.578,23.408,4.611,27.568A8.273,8.273,0,0,1,463.783,598.58Z" transform="translate(-308.38 -291.94)"/><path class="e" d="M441.148,520.684c-5.769,5.638-9.846,14.237-12.037,22.871-3.2-2.323-7.71-5.8-9.028-7a26,26,0,0,1,1.324-2.454,34.551,34.551,0,0,1,3.977-5.29.894.894,0,0,1,.12-.137,20.746,20.746,0,0,1,2.328-2.323c5.24-4.131,9.239-5.752,11.162-5.975.017,0,.04-.006.057-.006C439.932,520.284,440.939,520.375,441.148,520.684Z" transform="translate(-308.38 -291.926)"/><g transform="translate(142.783 288.875)"><path class="l" d="M479.578,641.8s2.8,11.6,4.2,19.529c.682,3.86,4.724,7.746,8.413,8.159a8.253,8.253,0,0,0,1.912-.011c4.444-.559,9.041-3.856,8.24-8.373-1.5-8.469-3.488-16.69-5.449-25.029Z" transform="translate(-479.578 -636.078)"/></g><path class="m" d="M484.169,675.52c.027.191.055.344.071.465a73.814,73.814,0,0,0,2.117,9.879c.326,1.123.664,2.172,1.014,3.118,1.1,2.977,2.251,4.912,3.184,4.657,1.052,1.241,50.411-17.617,52.53-18.391s3.254-3.329,2.062-7.006a7.828,7.828,0,0,0-.294-.767,6.118,6.118,0,0,0-1.443-2.117c-2.557-2.361-6.655-1.322-9.8-.4-.751.215-1.451.437-2.064.592a16.346,16.346,0,0,1-4.4.564,15.4,15.4,0,0,1-2.532-.261h-.007a21.909,21.909,0,0,1-2.929-.777c-1.314-.424-2.652-.941-4.124-1.458-.52-.186-1.063-.374-1.627-.557-.191-.059-.374-.124-.557-.19a22.444,22.444,0,0,1-2.141-.854,20.24,20.24,0,0,1-2.7-1.486h-.007c-.187-.126-.367-.251-.547-.376-.545-.391-1.039-.783-1.5-1.157-2.155-1.8-3.487-3.357-6.271-3.669-3.281-.36-8.511,1.564-9.2,4.925a4.082,4.082,0,0,0-.075.673c-.025,1.264.814,3.77,1.083,6.048.2,1.686.1,3.247-.9,4.1-3.356,2.876-5.341.825-6.47-1.713v-.015a19.607,19.607,0,0,1-1.3-4.76C483.551,665.27,483.436,670.037,484.169,675.52Z" transform="translate(-338.786 -356.377)"/><path class="n" d="M490.687,700.128c1.1,2.977,2.251,4.912,3.184,4.657,1.052,1.241,50.411-17.617,52.53-18.391s3.254-3.329,2.062-7.006a7.811,7.811,0,0,0-.294-.767C536.562,682.692,490.687,700.128,490.687,700.128Z" transform="translate(-342.101 -367.522)"/><path class="l" d="M520.068,667.578c2.163-.492,4.369-1.2,6.578-1.855-2.2,1.432-3.908,3.143-3.164,4.65.826,1.673,3.163.2,4.14-.323,1.231-.641,2.884-1.22,4.43-1.9a14.7,14.7,0,0,0-1.035,4.926.784.784,0,0,0,1.24.671,20.139,20.139,0,0,1,9.264-4.5,21.916,21.916,0,0,1-2.929-.777,20.632,20.632,0,0,0-5.9,3.017,9.5,9.5,0,0,1,1.78-4.475c-.52-.186-1.063-.374-1.627-.557-.191-.059-.374-.124-.557-.19-1.286.568-2.745,1.019-3.669,1.522-.778.43-3.251,1.389-3.419,1.588a17.148,17.148,0,0,1,4.948-3.964,20.247,20.247,0,0,1-2.7-1.486h-.007c-1.9.536-3.8,1.148-5.671,1.665a11.041,11.041,0,0,1,5.124-2.041l-1.5-1.157c-2.62.651-5.083,1.694-6.183,4.17A.8.8,0,0,0,520.068,667.578Z" transform="translate(-355.699 -359.77)"/><g transform="translate(0 259.573)"><path class="m" d="M224.949,580.9c-.179-.041-.33-.045-.445-.065a70.5,70.5,0,0,0-9.625-.839c-1.118-.017-2.172,0-3.135.052-3.029.166-5.122.678-5.151,1.6-1.43.612,2.032,49.207,2.144,51.362s2.129,3.91,5.825,3.853a7.663,7.663,0,0,0,.784-.053,5.853,5.853,0,0,0,2.34-.725c2.877-1.674,3.078-5.712,3.118-8.844.014-.747.008-1.449.038-2.053a15.623,15.623,0,0,1,.721-4.181,14.663,14.663,0,0,1,.95-2.242l0-.006a20.93,20.93,0,0,1,1.534-2.459c.756-1.081,1.6-2.159,2.491-3.36.316-.423.64-.866.966-1.331.107-.158.218-.307.33-.456a21.67,21.67,0,0,1,1.382-1.717,19.411,19.411,0,0,1,2.118-2.053l0-.006c.168-.136.332-.265.5-.394.51-.389,1.008-.73,1.477-1.043,2.25-1.465,3.962-.424,5.029-2.88,1.251-2.9.961-8.219-1.92-9.792a3.864,3.864,0,0,0-.594-.258c-1.147-.378,2.157.394,0,0-1.6-.286.322-3.863.824-2.713,4.84,11.126-3.661-.217-3.654-.215,2.291-.271-2.468-5.059-2.468-5.059C230.411,583.183,229.628,581.983,224.949,580.9Z" transform="translate(-206.248 -579.985)"/><path class="l" d="M259.41,590.248s-2.721,1.845-2.721,7.879,2.721,9.3,2.721,9.3a45.406,45.406,0,0,1-4.7-.262c-1.905-.138-2.648-.217-3.74-.247a21.79,21.79,0,0,1-7.631-1.613c-4.971-2.06-2.6-16.949,1.138-16.71a28.444,28.444,0,0,1,5.237.758C250.912,589.594,259.41,590.248,259.41,590.248Z" transform="translate(-222.612 -584.097)"/><path class="n" d="M211.745,580.1c-3.029.166-5.122.678-5.151,1.6-1.43.612,2.032,49.207,2.144,51.362s2.129,3.91,5.825,3.853a7.646,7.646,0,0,0,.784-.053C214.885,625.106,211.745,580.1,211.745,580.1Z" transform="translate(-206.248 -580.038)"/></g><g transform="translate(94.401 56.907)"><path class="d" d="M408.475,223.53s-3.234,2.359-10.605,2.359a21.959,21.959,0,0,1-4.785-.877s-2-5.4-4.518-6.533c-1.828-.826-1.6-.987-1.6-.987l6.724-16.158,19.394-1.061Z" transform="translate(-386.961 -195.961)"/><path class="e" d="M410.058,212.57c-.255,1.154-5.551-1.1-9.514-.769s-8.427.834-10.6,2.671c-.322.272-1.488-2.821-1.712-1.807-.73,3.3,3.455-20.645,3.455-20.645l22.76.734Z" transform="translate(-387.526 -192.02)"/><path class="e" d="M402.511,209.613c.362,1.869.3,2.879,5.929,2.587,9.419-.487,20.635-1.368,24.009-12.73,3.014-10.148-20.443-5.259-20.443-5.259s-6.049,3.326-7.451,6.111S402.511,209.613,402.511,209.613Z" transform="translate(-394.388 -192.504)"/></g><path class="m" d="M234.705,585.583c2.151.757,2.076.627,2.389,1.768.365,1.332-1.831,1.936-9.164,1.153s-7.867-2.836-7.867-2.836Z" transform="translate(-212.847 -323.086)"/><path class="l" d="M251.138,602.009c1.133,2.34,6.645,5.2-.978,5.47s-12.817-.8-12.956-6.064.606-9.981,4.95-9.638S251.138,602.009,251.138,602.009Z" transform="translate(-221.026 -326.035)"/><path class="g" d="M322.434,446.355v9.217h.022l34.439-3.214a89.725,89.725,0,0,1-21.731-2.772C331.447,448.725,327.3,447.653,322.434,446.355Z" transform="translate(-261.741 -256.588)"/><path class="h" d="M359.057,452.352v.006a113.48,113.48,0,0,0-23.637,3.4c-1.1.282-2.165.574-3.187.889-5.2,1.58-8.739,4.794-9.513,7.031-1.81-11.459-.632-17.325-.632-17.325,3.512.939,6.649,1.756,9.515,2.458q1.665.414,3.214.773a.619.619,0,0,1,.1.022A125.915,125.915,0,0,0,359.057,452.352Z" transform="translate(-261.396 -256.588)"/><g transform="translate(70.208 192.225)"><path class="l" d="M385.144,498.52a32.363,32.363,0,0,0-1.861,2.8c-7.721-7.207-21.566-19.406-27.58-24.7l-1.021-.9c-.834-.734-1.69-1.442-2.6-2.192-4.324-3.557-9.118-7.495-10.8-14.635a24.551,24.551,0,0,1-.63-5.688V451.06q1.665.414,3.214.773a.613.613,0,0,1,.1.022v1.353a21.588,21.588,0,0,0,.5,4.8c1.392,6.124,5.462,9.466,9.719,12.967.889.734,1.812,1.491,2.69,2.264l1.022.895C364.319,479.794,377.363,491.286,385.144,498.52Z" transform="translate(-340.649 -451.06)"/></g><path class="o" d="M343.962,453.208v-1.353a.613.613,0,0,0-.1-.022q-1.55-.357-3.214-.773v2.148a24.551,24.551,0,0,0,.63,5.688c1.022-.315,2.087-.607,3.187-.889A21.588,21.588,0,0,1,343.962,453.208Z" transform="translate(-270.44 -258.835)"/><g transform="translate(78.513)"><path class="p" d="M419.573,120.536v9.782c0,1.627-.228,2.59-2.171,2.59-1.642,0-1.135-6.824-3.306-6.824H397.091c-7.66.046-26.638-.241-28.891,9.373-.083-1.258-.124-1.887-.207-3.145-.1-1.55-.153-2.325-.254-3.876-.05-.758-.075-1.138-.124-1.9-.038-.58-.056-.87-.093-1.451,1.854-9.6,22.251-9.072,29.569-9.1H414.1a9.825,9.825,0,0,1,3.016.363C418.615,116.849,419.573,118,419.573,120.536Z" transform="translate(-361.789 -98.799)"/><path class="q" d="M417.083,134.865c-.068,1.061-.1,1.592-.171,2.653-.2,3.084-.375,4.625-.391,7.711-2.576-9.61-21.18-9.322-29-9.369h-17.01c-2.171,0-1.663,6.819-3.306,6.819-1.943,0-2.17-.964-2.17-2.59v-9.783a5.849,5.849,0,0,1,.44-2.44,3.6,3.6,0,0,1,3.062-1.99,13.776,13.776,0,0,1,1.974-.12h17.01c1.124,0,2.477.031,3.969.1a94.4,94.4,0,0,1,13.425,1.528,30.487,30.487,0,0,1,9.031,2.984C415.98,131.56,417.2,133.041,417.083,134.865Z" transform="translate(-360.6 -103.464)"/><path class="r" d="M367.375,160.731c.287,6.094,1.406,17.594,9.805,17.546,4.4-.026,8.1-6.113,7.94-7.543s-1.747-9.845-3.017-10.321S367.375,160.731,367.375,160.731Z" transform="translate(-361.719 -119.944)"/><path class="r" d="M379.094,143.487c-.878-1.762-1.454,3.8-1.43,3.167.324-8.72-11.017-6.791-11.091-16.025-.084-10.534-.716-11.262-1.072-16.593-1.151-17.265,16.03-20.355,29.561-20.456,7.829-.059,14.949,2.4,17.877,10.088,3.28,8.61,3.107,18.541,1.132,27.638C402.4,135.318,390.749,139.415,379.094,143.487Z" transform="translate(-360.797 -88.096)"/><path class="e" d="M423.909,145.964c.023,6.226-.372,15.46-6.172,18.974-1.647,1-2.611,3.169-6,3.949-3.659.843-5.18,1.71-5.61,3.783-.346,1.673-3.07-2.986-4.148-3.364-6.831-2.4-11.883-1.926-16.8-8.261-3.647-4.7-5.4-11.482-5.465-17.34l4.525-14.137c-.108-11,7.952-20.3,19.226-20.192,11.01.1,20.653,8.214,20.572,19.656A127.994,127.994,0,0,0,423.909,145.964Z" transform="translate(-367.612 -95.641)"/><path class="d" d="M430.884,126.522c-.061,1.874-.092,2.811-.153,4.686-.163,5.083-.316,7.439.516,12.712,4.946,20.791-8.522,30.965-23.879,28.807-14.841-2.085-14.023-19.642-13.9-35.152.285-4.1.427-6.143.713-10.239,0-.433,0-.866.026-1.273-.043-11.3,5.436-20.962,17.572-20.986C424.417,105.053,431.5,114.361,430.884,126.522Z" transform="translate(-374.159 -93.588)"/><path class="e" d="M383.747,158.4c.312,4.4-1.923,8.174-4.993,8.435s-5.81-3.09-6.122-7.487,1.4-7.82,4.439-8.363S383.436,154,383.747,158.4Z" transform="translate(-364.212 -115.486)"/><path class="r" d="M390.506,148.96" transform="translate(-372.766 -114.547)"/><path class="r" d="M404.194,146.327" transform="translate(-379.304 -113.289)"/><path class="s" d="M422.934,106.63c.017.04.04.074.057.114a.9.9,0,0,1-.074-.074,8,8,0,0,1-6.688,5c-6.991.12-11.573-6.215-18.341-5.638a8.067,8.067,0,0,0-5.992,3.287,11.3,11.3,0,0,0-1.8,6.659c-.022,5.718.011,15.841-1.427,17.154-.7.634-2.528-1.455-2.528-1.455,0-4.445-.662-6.933-3.493-8.257.514-1.232.771-1.849,1.278-3.082a21.934,21.934,0,0,1,3.344-11.573,21.681,21.681,0,0,1,4.314-4.981c-2.248-2.8-3.03-7.1-2.585-7.356,6.386-3.584,16.811-2.858,25.148-1.66,4.645.668,9.136,4.177,9.291,8.822A8,8,0,0,1,422.934,106.63Z" transform="translate(-369.012 -88.198)"/><path class="t" d="M417.589,122.52v10.1c0-3.969-2.342-4.549-5.477-4.549H395.107a103.332,103.332,0,0,0-13.166,1.042c-4.9.692-14.8,1.943-15.725,8.331-.272-4.147-.407-6.221-.679-10.368,1.117-6.616,11.721-7.618,16.8-8.233a116.444,116.444,0,0,1,12.767-.87h17.005C415.247,117.971,417.589,118.546,417.589,122.52Z" transform="translate(-360.841 -99.746)"/><path class="s" d="M450.518,103.172c5.672-5.568,3.293-11.433,0-17.443,0,0-9.787,10.026-11.6,10.108s3.1,7.336,3.1,7.336Z" transform="translate(-395.696 -84.347)"/><path class="s" d="M431.1,102.165c3.656-6.292,2.666-14.556-3.4-19.082-5.351,6.087-19.3,5.6-21.926,5.995S417.165,99.19,422.8,104.01Z" transform="translate(-379.903 -83.083)"/><path class="r" d="M425.605,113.043c.017.04.04.074.057.114a.9.9,0,0,1-.074-.074,8,8,0,0,1-6.688,5c-6.991.12-11.573-6.215-18.341-5.638a8.067,8.067,0,0,0-5.992,3.287,17.879,17.879,0,0,1-3.977-.2,2.231,2.231,0,0,1-.65-.354,9.756,9.756,0,0,1-1.7-1.746s.662-3.333,1.187-3.686,3.105-2.533,3.105-2.533c.652,1.641,1.438,2.362,3.908,2.413s14.123,0,21.4,0c1.8,0,3.383-.077,4.755,0C425.662,109.786,425.988,111.993,425.605,113.043Z" transform="translate(-371.684 -94.61)"/><path class="u" d="M417.589,119.544v10.1c0-3.969-2.342-4.549-5.477-4.549H395.107a103.428,103.428,0,0,0-13.166,1.042c-4.9.692-14.8,1.944-15.725,8.331-.272-4.147-.407-6.221-.679-10.368,1.117-6.616,11.721-7.618,16.8-8.233a116.323,116.323,0,0,1,12.767-.87h17.005C415.247,114.995,417.589,115.57,417.589,119.544Z" transform="translate(-360.841 -98.325)"/><path class="r" d="M362.2,157.945c.119,3.426-3.071,10.461-5.656,9.6,0,0,5.19,4.445,8.384,2.655-.747-3.646-1.12-5.469-1.868-9.115Z" transform="translate(-356.547 -118.838)"/><path class="v" d="M381.942,126.931c-4.968.64-14.8,1.944-15.725,8.331-.272-4.147-.407-6.221-.679-10.368,1.117-6.616,11.655-7.67,16.8-8.233a14.735,14.735,0,0,0-.529,2.99C381.451,122.02,381.952,122.5,381.942,126.931Z" transform="translate(-360.841 -99.12)"/><g transform="translate(4.432 22.364)"><path class="l" d="M433.434,126.864v2.529a2.436,2.436,0,0,0-1.036-1.322,6.635,6.635,0,0,0-3.4-.622H408.362a90.991,90.991,0,0,0-11.7.834c-.041-.616-.088-1.1-.119-1.544a93.737,93.737,0,0,1,9.995-.819c.823-.022,1.446-.026,1.824-.026h20.631a10.207,10.207,0,0,1,3.4.451A4.526,4.526,0,0,1,433.434,126.864Z" transform="translate(-380.082 -125.895)"/><path class="w" d="M381.612,129.056c-.445.062-.892.129-1.347.2-6.794,1.021-11.539,2.679-13.715,4.689a4.906,4.906,0,0,0-.928,1.125,5.46,5.46,0,0,0-.59,2.228v-3.565a1.431,1.431,0,0,1,.445-.922,10.125,10.125,0,0,1,.949-.762c3.2-2.267,8.7-3.57,13.6-4.326q.745-.115,1.466-.207C381.524,127.952,381.571,128.44,381.612,129.056Z" transform="translate(-365.032 -126.667)"/></g></g><path class="x" d="M410.839,360.958c-1.055,1.865-2.09,3.516-3.1,4.979-6.227,9.022-10.2,6.138-15.2,6.978a78.936,78.936,0,0,1-18.973,1.243c-10.6-.726-20.248-4.173-36.744-9.758-.293-.095-.59-.193-.888-.288-.172-.057-.34-.114-.507-.167-2.633-.878-5.448-1.74-8.478-2.6-2.466-.7,23.194-39.158,27.07-42.6s14.512-12.093,17.573-14.214,10.819-6.89,12.318-9.445,11.5-28.464,11.5-28.464c.277,1.337.47,2.617.643,3.849a109.076,109.076,0,0,0,5.438,21.731c4.357,12.323,9.873,22.781,12.83,33.051C417.468,336.223,417.416,349.388,410.839,360.958Z" transform="translate(-263.815 -170.747)"/><path class="d" d="M416.922,455.337c-.006.011-.017.023-.022.034a42.933,42.933,0,0,1-2.825,3.681c-5.027,5.866-9.484,7.321-13.707,8.034a48.8,48.8,0,0,1-17.685.1c-.006,0-.017-.006-.023-.006-8.131-1.541-15.4-5.233-26.056-9.467-.005,0-.017-.006-.023-.006-3.087-1.233-6.466-2.5-10.232-3.789-.114-.034-.228-.074-.342-.114.114.034.234.074.348.109,15.613,4.8,37.783,4.1,55.473,2.75,5.244-.4,10.089-.861,14.255-1.25C416.368,455.388,416.648,455.36,416.922,455.337Z" transform="translate(-273 -260.145)"/><path class="y" d="M473.033,414.712c-1.383-2.188-6-3.05-22.2-1.648s-3.868-7.716-2.364-10.679,14.017-51.672,19.69-35.206c4.433,12.865,4.68,15.271,5.346,29.062A141.827,141.827,0,0,1,473.033,414.712Z" transform="translate(-319.119 -217.153)"/><path class="z" d="M423.315,155.712c-.837,1.427-1.516,4.114-4.743,4.019a3.193,3.193,0,0,1-3.107-4.551C416.272,153.643,423.315,155.712,423.315,155.712Z" transform="translate(-306.026 -117.246)"/><path class="z" d="M455.872,155.712c-.836,1.427-1.516,4.114-4.743,4.019a3.192,3.192,0,0,1-3.107-4.551C448.83,153.643,455.872,155.712,455.872,155.712Z" transform="translate(-321.576 -117.246)"/><path class="e" d="M378.786,203.266c2.02,5.856-2.805,13.954-9.176,14.437l11.579.939,1.162-7.311s-.719-6.747-1.825-8.065S378.786,203.266,378.786,203.266Z" transform="translate(-284.273 -140.205)"/><g transform="translate(119.178 50.336)"><path class="e" d="M438.19,182.393c1.97.03,3.612-1.119,3.526-2.247-.031-.411-.441-.906-1.208-.544a6.567,6.567,0,0,1-2.314.353,6.43,6.43,0,0,1-2.131-.381c-1.244-.374-1.637.116-1.668.526C434.308,181.226,436.219,182.343,438.19,182.393Z" transform="translate(-434.392 -179.441)"/></g><path class="aa" d="M420.455,162.719a1.754,1.754,0,0,0,1.745,1.744,1.721,1.721,0,0,0,1.744-1.718A1.753,1.753,0,0,0,422.2,161,1.722,1.722,0,0,0,420.455,162.719Z" transform="translate(-308.557 -120.298)"/><path class="aa" d="M449.935,163.232a1.766,1.766,0,0,0,1.788,1.745,1.7,1.7,0,0,0,1.766-1.717,1.829,1.829,0,0,0-1.807-1.745A1.719,1.719,0,0,0,449.935,163.232Z" transform="translate(-322.637 -120.543)"/><path class="ab" d="M415.747,154.361l7.85-.158" transform="translate(-306.309 -117.051)"/><path class="ab" d="M449.429,154.764l6.76.488" transform="translate(-322.396 -117.319)"/><path class="ac" d="M431.973,200.1a9.612,9.612,0,0,1,4.352-1.15,4,4,0,0,1,3.219,1.15l-3.215.8" transform="translate(-314.058 -138.424)"/><path class="d" d="M402.142,234.88c1.484,2.425,13.433,1.078,13.433,1.078a7.171,7.171,0,0,1,3.23-5.934c.2-.155.4-.3.611-.446a46.968,46.968,0,0,1,5.769-3.064l.114-.051c.479-.24.93-.474,1.352-.714,1.1-.616,1.541-.959,1.62-1.193.223-.634-2.254-.514-1.98-3.207,0,0-9.365,2.693-15.55,4.559-.885.268-1.7.519-2.42.742-1.375.422-2.379.753-2.757.907a4.742,4.742,0,0,0-1.273.862,7.93,7.93,0,0,0-.707.73C402.193,230.788,401.131,233.22,402.142,234.88Z" transform="translate(-299.62 -149.122)"/><path class="e" d="M391.147,212.935c1.284-.942,3.036-1.764,7.185,0,.131.057.262.108.393.16a28.739,28.739,0,0,0,14.512,1.6c.2-.155.4-.3.611-.446a46.974,46.974,0,0,1,5.769-3.064l.114-.051c.479-.24.93-.474,1.352-.714,1.1-.616,1.541-.959,1.62-1.193-3.818,2.083-11.065,3.384-17.53,1.352-.285-.086-.571-.183-.85-.285-10.283-3.738-12.194-14.656-12.533-21.036,0,0,1.057,19.307.926,20.42-.069.558-1.987,1.834-2.578,2.793-.255.413.483,1.018.483,1.018S390.25,213.6,391.147,212.935Z" transform="translate(-294.052 -133.796)"/><path class="z" d="M435.309,207.319a13.4,13.4,0,0,0,3.061-.453c.991-.236,1.513.585.613,1.221a5.89,5.89,0,0,1-3.806,1.063,4.941,4.941,0,0,1-2.207-.613c-.959-.533-.862-1.678.009-1.484A10.6,10.6,0,0,0,435.309,207.319Z" transform="translate(-314.209 -142.184)"/><path class="d" d="M452.013,457.043c-.011.086-.028.171-.045.257a14.05,14.05,0,0,1-2.865,6.066c-5.609,6.916-18.369,9.359-36.8,5.21-.006,0-.017-.006-.023-.006-7.35-1.655-2.79-3.6-3.538-6.306l16.68-2.02,2.294-.279,3.732-1.912.12-.063c5.752-.462,10.488-.987,14.135-1.187.279-.017.554-.029.816-.04A20.849,20.849,0,0,1,452.013,457.043Z" transform="translate(-302.618 -261.537)"/><path class="ad" d="M422.707,455.75c-.011.086-.028.171-.045.257a14.047,14.047,0,0,1-2.865,6.066c.883-1.562-.142-2.795-2.562-3.4-3.846-.959-11.938-.561-17.781,0-1.062.1-2.18.194-3.339.28-13.159.93-31.882.6-39.2-1.141-.005,0-.017-.006-.023-.006-3.087-1.233-6.466-2.5-10.232-3.789l.006-.006c15.613,4.8,37.783,4.1,55.473,2.75l.12-.063c5.752-.462,10.488-.987,14.135-1.187.285-.023.565-.051.839-.074-.006.011-.017.023-.023.034A20.849,20.849,0,0,1,422.707,455.75Z" transform="translate(-273.312 -260.244)"/><path class="y" d="M347.991,377.987c-1.906-.143-3.766-.279-5.575-.422-9.313-.731-17.308-1.6-23.893-4.035A31.349,31.349,0,0,1,313,370.893s7.2-9.564,9.883-16.554c.006-.017.011-.028.017-.046a2.081,2.081,0,0,0,.074-.245c1.25-4.114,2.442-9.941,3.053-20.15V297.554c5.393-6.095,11.625-9.381,12.96-8.982,4.479,1.324-.275,57.777-.776,62.316C335.73,373.353,351.809,378.272,347.991,377.987Z" transform="translate(-257.234 -181.212)"/><g transform="translate(67.47 78.018)"><path class="d" d="M339.417,257.069v10.478c0,7.815,3.174,12.235,10.887,12.235,15.739,0,12.957-22.183,10.383-32.428-2.546-10.15-9.206-13.442-11.868-12.663-5.572,1.292-8.5,4.291-9.88,9.587C338.155,247.255,339.417,252.54,339.417,257.069Z" transform="translate(-336.971 -233.46)"/><path class="l" d="M348.74,280.468c-10.413,0-12.6-7.584-12.6-13.947V256.043c0-1.7-.192-3.566-.379-5.366-.306-2.962-.6-5.76-.042-7.86,1.554-5.964,5.4-7.878,11.2-9.72a23.527,23.527,0,0,1,3-.662c2.177,0,2.964.688,5.157,2.83a22.058,22.058,0,0,1,5.711,10.648c1.232,4.9,4.745,21.55-1.763,29.9C356.608,278.9,353.149,280.468,348.74,280.468Zm-.648-45.2a1.289,1.289,0,0,0-.356.041l-.094.025c-4.863,1.128-7.358,3.547-8.61,8.351-.4,1.5-.137,4,.136,6.641a56.349,56.349,0,0,1,.4,5.719v10.478c0,7.277,2.83,10.523,9.175,10.523,3.347,0,5.827-1.093,7.58-3.343,2.893-3.71,4.713-12.74,1.142-26.956a18.664,18.664,0,0,0-4.783-9.031A7.485,7.485,0,0,0,348.091,235.267Z" transform="translate(-335.406 -232.434)"/></g><path class="ae" d="M337.112,259.3v5.843c0,.243,0,22.577.006,22.815,16,0,14.029-45.354,14.029-45.354l-3.34-.034C340.07,244.858,337.112,247.3,337.112,259.3Z" transform="translate(-268.751 -159.255)"/><g transform="translate(17.786 80.094)"><path class="d" d="M247.029,326.837a8.384,8.384,0,0,0,8.179-6.591c4.44-20.286,10.778-39.727,14.241-44.525,8.537-5.516,18.5-6.337,35.766-20.674,3.561-2.957,5.317-10.869,2.632-14.639a10.027,10.027,0,0,0-12.567-2.919c-6.23,3.216-27.757,16.066-36.469,22.224-6.992,4.943-7.706,15.645-11.762,30.32-3.608,13.052-6.3,25.317-6.412,25.833-.99,4.522.071,9.786,4.593,10.776A8.4,8.4,0,0,0,247.029,326.837Z" transform="translate(-240.297 -236.407)"/></g><path class="d" d="M231.3,391.479l-4.126,15.391,17.934,8.74,5.158-22.558Z" transform="translate(-216.243 -230.379)"/><path class="d" d="M266.63,403.111c-.38-1.156-.652-3.57-1.189-5.678a14.713,14.713,0,0,0-.486-1.8,10.24,10.24,0,0,0-5.748-7.27c-.682-.293-3.8,1-3.062,1.109.706.1.1.944-.276,1.749-.616-.661,1.106-.756.81-1.7a1.749,1.749,0,0,0-3.235-.149c-.014-.017-.027-.036-.041-.054a.588.588,0,0,0-.584-.214c-.019-.059-.044-.115-.062-.175-.211-.718-1.312-.358-1.1.357a11.544,11.544,0,0,0,4.69,5.944c.049.044.094.09.144.134.76.658,3.281.712,4.441,1.651.063,3.249,1.334,8.048,2.7,8.836C265.84,407.141,267.649,406.214,266.63,403.111Z" transform="translate(-227.923 -228.871)"/><path class="e" d="M255.825,382.236c-.231.807-1.854,2.2-4.442,2.31s-9.453-.042-10.87-.864c-.192-.111,1.859-7.983,1.859-7.983s10.843,3.888,10.744,3.737S255.825,382.236,255.825,382.236Z" transform="translate(-222.607 -222.842)"/><path class="d" d="M250.886,421.58c-.638,2.209-.178,2.666-.615,3.542a2.868,2.868,0,0,0,2.048,3.775c2.347.828,3.459.215,4.874-5.974s-2.665-5.623-2.665-5.623Z" transform="translate(-227.18 -242.704)"/><g transform="translate(18.297 151.063)"><path class="af" d="M248.566,379.9a1.322,1.322,0,0,1-.958-1.626l1.4-5.029a1.367,1.367,0,0,1,1.672-.932l6.311,1.667a1.321,1.321,0,0,1,.958,1.626l-1.4,5.029a1.367,1.367,0,0,1-1.672.931Z" transform="translate(-244.276 -372.264)"/><g transform="translate(4.385 0.994)"><path class="ag" d="M255.94,381.489a2.08,2.08,0,0,1-.523-.079l-4.55-1.2a1.231,1.231,0,0,1-.81-.475,1.173,1.173,0,0,1,0-.9l.97-3.476c.191-.683.376-.891.793-.891a2.549,2.549,0,0,1,.628.1l4.55,1.2c.461.122.717.264.832.463a1.213,1.213,0,0,1-.018.911l-.97,3.476C256.624,381.386,256.264,381.489,255.94,381.489Z" transform="translate(-249.811 -374.31)"/><path class="af" d="M251.673,374.48h0a2.4,2.4,0,0,1,.588.1l4.551,1.2c.412.109.645.232.735.39a1.11,1.11,0,0,1-.033.79l-.97,3.476c-.194.7-.487.753-.746.753a1.921,1.921,0,0,1-.483-.075l-4.55-1.2a1.116,1.116,0,0,1-.713-.4,1.057,1.057,0,0,1,.011-.779l.97-3.475c.2-.724.377-.777.641-.777m0-.314c-.53,0-.751.311-.944,1.007l-.97,3.475c-.247.885-.006,1.323.924,1.569l4.551,1.2a2.234,2.234,0,0,0,.564.085c.51,0,.851-.276,1.049-.984l.97-3.476c.254-.913.066-1.308-.925-1.569l-4.55-1.2a2.694,2.694,0,0,0-.668-.107Z" transform="translate(-249.667 -374.166)"/></g><path class="ah" d="M264.649,383.7a1.246,1.246,0,0,1,.957-.118l2,.529s.9.313,1.6-2.176l-.015.053c.694-2.489-.245-2.662-.245-2.662l-2-.53a1.209,1.209,0,0,1-.764-.572Z" transform="translate(-252.438 -375.113)"/><path class="ah" d="M244.544,378.8a1.21,1.21,0,0,0-.764-.572l-2-.53s-.94-.173-.246-2.662l-.015.053c.694-2.488,1.595-2.176,1.595-2.176l2.005.53a1.247,1.247,0,0,0,.957-.118Z" transform="translate(-241.274 -372.567)"/></g><path class="ai" d="M251.716,372.882l6.668,1.761a1.418,1.418,0,0,1,.938.8,1.321,1.321,0,0,0-.986-1.462l-6.311-1.667a1.367,1.367,0,0,0-1.656.891A1.465,1.465,0,0,1,251.716,372.882Z" transform="translate(-227.321 -221.201)"/><path class="aj" d="M255.181,386.686l-6.669-1.761a1.421,1.421,0,0,1-.938-.8,1.322,1.322,0,0,0,.986,1.462l6.311,1.666a1.366,1.366,0,0,0,1.656-.891A1.465,1.465,0,0,1,255.181,386.686Z" transform="translate(-225.98 -226.867)"/><path class="e" d="M361.872,227.718c-13.222,0-18.673,2.132-20.942,3.132a60.416,60.416,0,0,0-9.509,5.206s14.257-8.648,31.131-5.579c0,0-.481-3.235,5.681-3.975s.613-1.859-.078-1.721,1.045.156,1.045.156Z" transform="translate(-266.033 -150.755)"/></g><g transform="translate(259.737 300.969)"><path class="ak" d="M579.129,660.1c-3.572-2.129-9.039.222-11.775,1.013-4.554,1.316-5.294,2.376-6.123,4.748C561.068,666.331,579.568,660.362,579.129,660.1Z" transform="translate(-561.231 -659.23)"/></g><path class="al" d="M646.914,323.6l-69.578,33.469a6.345,6.345,0,0,0-3.473,7.656L653.106,333.3l.379-7.593A5.176,5.176,0,0,0,646.914,323.6Z" transform="translate(-307.388 -197.745)"/><g transform="translate(13.361 172.808)"><path class="am" d="M713.211,629.977a8.546,8.546,0,0,1-6.979,3.607H633.109a8.56,8.56,0,0,1,0-17.12h61.237c-15.8-49.51-24.276-105.839-23.877-156.25A371.734,371.734,0,0,1,672.7,421.5a7.121,7.121,0,0,1,.206-1.113,8.558,8.558,0,0,1,16.806,3.03,354.812,354.812,0,0,0-2.111,36.8,477.063,477.063,0,0,0,3.561,60.358c4.3,35.472,12.3,70.613,23.151,101.628A8.567,8.567,0,0,1,713.211,629.977Z" transform="translate(-345.097 -413.891)"/><path class="an" d="M731.7,429.347a354.779,354.779,0,0,0-2.111,36.8H712.454a371.785,371.785,0,0,1,2.231-38.719,7.135,7.135,0,0,1,.206-1.113h16.6A8.514,8.514,0,0,1,731.7,429.347Z" transform="translate(-387.082 -419.826)"/><path class="an" d="M764.947,825.056a8.094,8.094,0,0,1-.757,1.3,8.541,8.541,0,0,1-6.979,3.6H730.773v-4.906Z" transform="translate(-395.831 -610.271)"/><path class="h" d="M700.549,785.3a8.547,8.547,0,0,1-6.979,3.607H620.447a8.56,8.56,0,1,1,0-17.12h61.237c-3.39-10.626-6.443-21.56-9.142-32.688h17.65c3.332,13.3,7.173,26.182,11.453,38.422A8.548,8.548,0,0,1,700.549,785.3Z" transform="translate(-339.049 -569.219)"/><path class="h" d="M292.962,791.057a8.546,8.546,0,0,1-6.979,3.607H98.152a8.56,8.56,0,1,1,0-17.12h61.237c-3.39-10.626-4.5-13.817-7.2-24.945l18.389,2.5c3.332,13.3,119.2,15.938,123.478,28.178A8.549,8.549,0,0,1,292.962,791.057Z" transform="translate(-89.592 -575.664)"/></g><g transform="translate(332.102 172.807)"><path class="an" d="M732.162,583.776h-17.65c-10.985-45.27-16.149-93.65-14.426-136.671q.128-3.279.314-6.512.548-9.612,1.569-18.8c.011-.1.023-.2.034-.3a2.855,2.855,0,0,1,.046-.308,8.557,8.557,0,0,1,16.965,2.225q-.676,5.967-1.13,12.189c-1.912,25.931-1.039,55.028,2.585,84.97A513.8,513.8,0,0,0,732.162,583.776Z" transform="translate(-699.76 -413.889)"/></g><path class="an" d="M704.988,348.531a10.155,10.155,0,0,1-2.534,6.191l-18.82,19.785a34.633,34.633,0,0,1-4.987,3.834c-.679.32-1.489.7-2.4,1.125-10.454,4.89-34.7,16.224-39.746,18.58a7.055,7.055,0,0,1-3.881.788l-.04.04H548.053l18.6-19.408L596.3,348.531l15.447-13.768,84.246-2.25a5.187,5.187,0,0,1,4.845,3.618l3.789,9.085A8.661,8.661,0,0,1,704.988,348.531Z" transform="translate(-295.2 -202.215)"/><path class="h" d="M676.245,422.4c-10.454,4.89-34.7,16.224-39.746,18.58a7.056,7.056,0,0,1-3.881.788l-.04.04H548.053l18.6-19.408Z" transform="translate(-295.2 -245.145)"/><path class="k" d="M749.146,348.574H640.459l15.732-16.018h83.961A5.188,5.188,0,0,1,745,336.174l3.789,9.085A8.651,8.651,0,0,1,749.146,348.574Z" transform="translate(-339.334 -202.236)"/><g transform="translate(0 331.535)"><path class="h" d="M697.717,740.813v3.367a22.815,22.815,0,0,1-.131,2.426,23.057,23.057,0,0,1-22.9,20.606l-92.115-.017c-.645,0-1.278-.023-1.906-.068-11.807-.856-21.126-9.626-21.126-21.536l10.717-10.831,15.927-16.093h88.206q.6-.034,1.2-.034A22.027,22.027,0,0,1,696.9,734.759,22.711,22.711,0,0,1,697.717,740.813Z" transform="translate(-300.686 -718.167)"/><path class="ao" d="M716.9,772.183A23.058,23.058,0,0,1,694,792.789l-92.115-.017c-.645,0-1.278-.023-1.906-.068,5.524-6.06,11.008-11.67,11.008-11.67h80.273c13.314,0,24.138.188,24.955-7.23A2.671,2.671,0,0,1,716.9,772.183Z" transform="translate(-320.001 -743.744)"/><path class="k" d="M706.695,734.76H580.05l15.927-16.093h88.205q.6-.034,1.2-.034a22.026,22.026,0,0,1,21.314,16.126Z" transform="translate(-310.482 -718.168)"/><path class="ap" d="M89.594,777.7a19.47,19.47,0,0,1-19.571-19.322A21.277,21.277,0,0,1,90.094,737.52L353.77,723.772c.28-.015.559-.022.836-.022,9.693,0,17.287,8.567,17.287,19.5v3.424c0,11.293-5.632,20.357-12.821,20.636L90.389,777.685C90.124,777.7,89.857,777.7,89.594,777.7Z" transform="translate(-66.884 -720.612)"/><path class="aq" d="M351.735,724.019c7.842,0,14.148,7.208,14.148,16.364v3.424c0,9.416-4.411,17.29-9.8,17.5l-18.663.722-25.966,1L87.4,771.679c-.225.009-.451.013-.674.013a16.232,16.232,0,0,1-16.433-16.184,18.135,18.135,0,0,1,17.1-17.723l214.4-11.182,25.779-1.343,23.5-1.224q.337-.018.671-.018m0-6.277h0c-.331,0-.668.008-1,.026l-23.5,1.224c-4.776.248-16.377.852-25.78,1.342L87.06,731.516c-12.707.663-23.046,11.426-23.046,23.992A22.193,22.193,0,0,0,70.7,771.467a22.723,22.723,0,0,0,16.027,6.5c.3,0,.612-.006.916-.017L311.692,769.3l25.967-1,18.664-.722c4.8-.186,9.235-3.285,12.157-8.5a31.728,31.728,0,0,0,3.681-15.27v-3.424a23.919,23.919,0,0,0-5.669-15.729,19.367,19.367,0,0,0-14.756-6.912Z" transform="translate(-64.014 -717.742)"/><g transform="translate(6.277 6.277)"><path class="h" d="M357.475,736.036c4.34,0,7.871,4.524,7.871,10.087v3.424c0,6.783-2.75,10.782-3.847,11.23l-18.585.719-25.966,1L92.9,771.146c-.145.005-.289.008-.433.008a9.927,9.927,0,0,1-10.156-9.907,11.9,11.9,0,0,1,11.146-11.454l214.4-11.182,25.777-1.342c4.776-.248,15.352-.8,23.5-1.224.114-.006.23-.009.344-.009h0m0-6.278c-.223,0-.447.006-.671.018L333.3,731l-25.779,1.343-214.4,11.182a18.135,18.135,0,0,0-17.1,17.723,16.232,16.232,0,0,0,16.433,16.184c.223,0,.449,0,.674-.013l224.052-8.649,25.966-1,18.663-.722c5.392-.209,9.8-8.083,9.8-17.5v-3.424c0-9.156-6.306-16.364-14.148-16.364Z" transform="translate(-76.031 -729.758)"/></g><circle class="ar" cx="10.7" cy="10.7" r="10.7" transform="translate(11.744 26.59)"/><path class="as" d="M579.3,768.147l-17.719.685c-3.652-11.915-6.888-24.19-9.678-36.659l17.365-.9C572.179,743.941,575.54,756.3,579.3,768.147Z" transform="translate(-297.039 -724.204)"/><path class="as" d="M479.888,789.056H397.513a11.857,11.857,0,1,0,0,23.714H487.2Z" transform="translate(-217.635 -751.803)"/></g><g transform="translate(209.754 172.809)"><path class="am" d="M554.963,628.677a8.1,8.1,0,0,1-.757,1.3,8.54,8.54,0,0,1-6.979,3.6H474.1a8.559,8.559,0,0,1,0-17.118h61.239c-15.8-49.512-24.275-105.84-23.878-156.25a372.949,372.949,0,0,1,2.23-38.719,7.1,7.1,0,0,1,.209-1.113,8.545,8.545,0,0,1,9.257-6.436c3.651.418.6,3.783,1.442,7.151a18.343,18.343,0,0,1,0,4.446c-1.306,11.581,4.1,21.789,4,34.67a476.958,476.958,0,0,0,3.557,60.356c4.3,35.475,12.307,70.616,23.152,101.63A8.558,8.558,0,0,1,554.963,628.677Z" transform="translate(-465.547 -413.892)"/><path class="an" d="M572.692,429.347a354.808,354.808,0,0,0-2.112,36.8H553.449a371.781,371.781,0,0,1,2.232-38.719,7.113,7.113,0,0,1,.205-1.113h16.6A8.528,8.528,0,0,1,572.692,429.347Z" transform="translate(-507.53 -419.827)"/><path class="h" d="M576.02,440.161h10.256l-1.427-8.842Z" transform="translate(-518.311 -422.216)"/><path class="an" d="M605.471,825.056a8.087,8.087,0,0,1-.757,1.3,8.539,8.539,0,0,1-6.979,3.6H571.3v-4.906Z" transform="translate(-516.055 -610.271)"/></g><g transform="translate(186.963 137.64)"><path class="at" d="M564.643,616.467C544.647,553.789,536.37,480.2,543,421.5a8.56,8.56,0,1,1,17.011,1.92c-3.254,28.833-2.751,62.429,1.454,97.156,4.3,35.473,12.3,70.616,23.147,101.63a8.56,8.56,0,0,1-8.08,11.385" transform="translate(-478.674 -378.724)"/><g transform="translate(0 28.939)"><path class="h" d="M495.095,410.763l-4.164.34-19.562,1.612-44.686,3.737q-.184.014-.369.014a4.4,4.4,0,0,1-1.058-8.677s0-.005.009-.005a.327.327,0,0,1,.062-.014,4.769,4.769,0,0,1,.633-.1l50.957-4.251a0,0,0,0,0,0,0l13.805-1.135,1.016-.08h0l.4-.033,2.226-.184a4.406,4.406,0,1,1,.723,8.782Z" transform="translate(-421.918 -401.966)"/><g transform="translate(0.156 0.199)"><path class="an" d="M493.106,403.9a2.278,2.278,0,0,1-1.9,2.453c-.056.01-.123.019-.179.024l-19.241,1.7L424.4,412.228c-.066.005-.133.009-.2.009a2.279,2.279,0,0,1-1.98-1.153,4.388,4.388,0,0,1,3.181-3.114s0-.005.009-.005a.326.326,0,0,1,.062-.014,4.755,4.755,0,0,1,.633-.1L477.06,403.6a0,0,0,0,0,0,0l13.806-1.135,1.016-.08h0l.4-.033A2.265,2.265,0,0,1,493.106,403.9Z" transform="translate(-422.218 -402.348)"/></g><path class="h" d="M536.3,410.135a1.793,1.793,0,0,1-.293.974L516.44,412.72A6.038,6.038,0,0,1,517.494,408a14.537,14.537,0,0,1,4.5-4.58,0,0,0,0,0,0,0,2.259,2.259,0,0,1,.765-.3h.01l12.879-1.135c.019,0,.038,0,.057,0,.033.109.062.208.095.307a8.922,8.922,0,0,1,.2.879s.118,1.456.208,3.181C536.271,407.625,536.324,409.053,536.3,410.135Z" transform="translate(-466.99 -401.971)"/></g><path class="h" d="M586.722,349.451,567.9,369.236a34.646,34.646,0,0,1-4.988,3.834c-8.479,3.966-31.874,22.519-37.232,25.345-3.3,1.739-9.587-12.522-18.534-11.779-3.167.263,4.408-3.5,4.971-3.88l64.3-29.506c2.237-.947.6-.607,2.036,1.116.417.5,5.579-8.282,5.8-7.609l3.234-.19C588.483,349.547,588.908,347.2,586.722,349.451Z" transform="translate(-462.257 -346.568)"/></g><path class="at" d="M606.735,355.416,587.915,375.2a34.678,34.678,0,0,1-4.988,3.835c-8.48,3.966-36.659,17.142-42.148,19.7-6.477,3.03-8.234-3.253-8.234-3.253l-7.276-19.956a4.744,4.744,0,0,1-.183-.73,6.359,6.359,0,0,1,3.652-6.928l69.579-33.468a5.183,5.183,0,0,1,6.077,1.415,5.41,5.41,0,0,1,.976,1.763l3.538,8.326A10.332,10.332,0,0,1,606.735,355.416Z" transform="translate(-284.179 -202.909)"/><path class="k" d="M606.15,338.816s-1.329-3.806-6.083-1.469L525.086,374.2a6.359,6.359,0,0,1,3.652-6.928l70.916-34.318C601.891,332.007,604.84,333.766,606.15,338.816Z" transform="translate(-284.179 -202.309)"/><path class="at" d="M499.912,784.9H410a12.942,12.942,0,0,0,0,25.884h97.9Z" transform="translate(-223.082 -418.284)"/><path class="au" d="M751.665,340.523c-.216,2.237-4.057,5.37-6.305,5.37H720.622a11.135,11.135,0,0,1-6.922-2.922l-8.275-8.5s-1.164-1.918-4.479-1.918h42.029l6.4.457Z" transform="translate(-368.224 -202.236)"/><path class="al" d="M753.843,330.394l1.925,6.3c-.183,1.877-3.4,4.507-5.288,4.507H723.855a9.336,9.336,0,0,1-5.809-2.454l-6.941-7.126s-1.015-1.228-3.8-1.228,7.526-2.364,7.526-2.364Z" transform="translate(-371.035 -200.074)"/><path class="av" d="M757.644,337.433H725.3l-13.906-14.278h47.659Z" transform="translate(-373.213 -197.745)"/><path class="h" d="M103.442,783.916a5.806,5.806,0,1,1-5.806-5.7A5.753,5.753,0,0,1,103.442,783.916Z" transform="translate(-77.3 -415.091)"/><g transform="translate(260.64 311.897)"><path class="aw" d="M562.958,680.149" transform="translate(-562.958 -680.149)"/></g><path class="an" d="M516.335,421.28" transform="translate(-280.051 -244.612)"/><path class="an" d="M739.9,443.6h-7.6l-1.383,9.422H736.3Z" transform="translate(-382.541 -255.271)"/><path class="h" d="M719.311,430.082q-.676,5.967-1.13,12.189c-2.8,1.306-12.121,7.607-17.8,11.5q.128-3.278.314-6.512.548-9.612,1.569-18.8c.011-.1.022-.2.034-.3a2.805,2.805,0,0,1,.046-.308h16.925A8.5,8.5,0,0,1,719.311,430.082Z" transform="translate(-367.955 -247.753)"/><g transform="translate(190.898 59.801)"><path class="ax" d="M435.161,201.53a4.66,4.66,0,0,1-.641.057c-3.252.1-5.008.261-5.068-1.567a1.435,1.435,0,0,1,.061-.481c.626-2.148,5.834-2.583,7.364-1.13C437.988,199.462,437.467,201.2,435.161,201.53Z" transform="translate(-429.451 -197.56)"/><path class="ay" d="M435.161,203.336a4.657,4.657,0,0,1-.641.057c-3.252.1-5.008.261-5.068-1.567a1.435,1.435,0,0,1,.061-.481C431.59,201.3,434.1,201.678,435.161,203.336Z" transform="translate(-429.451 -199.366)"/></g><path class="d" d="M415.419,166.288c2.568-.482,5.889-1.315,7.748,0s-2.707,3.122-2.707,3.122A4.237,4.237,0,0,1,415.419,166.288Z" transform="translate(-231.851 -122.485)"/><path class="e" d="M400.134,165.664c-.529,2.441-5.348,6.063-1.622,7.3C402.058,174.14,400.134,165.664,400.134,165.664Z" transform="translate(-223.106 -122.525)"/><path class="d" d="M444.687,167.38c2.567-.482,5.889-1.314,7.747,0s-2.707,3.122-2.707,3.122A4.236,4.236,0,0,1,444.687,167.38Z" transform="translate(-245.83 -123.007)"/><path class="az" d="M471.214,146.615c1.742.7,5.6,3.106,3.143,4.721S471.214,146.615,471.214,146.615Z" transform="translate(-258.5 -113.427)"/><path class="az" d="M400.685,165.581c-.3,2.146-4.227,5.595-.924,6.42C402.906,172.786,400.685,165.581,400.685,165.581Z" transform="translate(-223.745 -122.486)"/></g><path class="d" d="M340.377,261.968c-.958,5.485,5.956,8.036,8.4,6.155s3.322,0,2.758,4.794c-.438,3.724,9.188-9.812,6.948-11.685s-8.881-4.527-10.186-4.353S340.377,261.968,340.377,261.968Z" transform="translate(-183.63 -166.087)"/><path class="l" d="M0,4.144H3.624V3.31H.833v-.2ZM2.148,1.4H0V3.628L.833,2.6V2.229h.643ZM0,.832H2.791v.2L3.624,0H0Zm2.791.715v.367H2.148l-.671.831H3.624V.516h0Z" transform="translate(112.148 153.269) rotate(16)"/><g transform="translate(195.58 373.76)"><path class="l" d="M755.078,475.878h-.542l-3.7,5.817-3.67-5.817h-.541l3.962,6.291v4.1h.49v-4.1Zm-15.84,9.927,6.336-9.815v-.111h-6.88v.46h6.1l-6.318,9.8v.126h7.345v-.46Zm-6.227-9.217,2.7,6.207h-5.329Zm4.2,9.677h.527l-4.523-10.387h-.42l-4.4,10.387h.519l1.283-3.015H735.9Zm-14.6-.46v-9.927h-.485v10.387h5.559v-.46Z" transform="translate(-722.13 -475.504)"/><path class="l" d="M913.029,475.652h-3.072l-2.211,4.244-2.27-4.244h-3.086l3.813,7.167v3.235h3.086v-3.294Zm-20.061,0v2.4h4.986l-5.164,6.054v1.944h9.378v-2.4H896.9l5.164-6.039v-1.959Zm-7.656,6.484,1.276-3.4,1.246,3.4Zm3.947,3.917h3.294l-4.288-10.4h-3.175l-4.437,10.4h3.175l.623-1.662h4.2Zm-15.283-8.028h1.766a1.425,1.425,0,1,1,0,2.849h-1.766Zm6.514,8.028-2.107-3.4a3.547,3.547,0,0,0,1.751-3.309c0-2.359-1.6-3.7-4.392-3.7h-4.852v10.4h3.086v-2.8h1.632l1.38,2.8Zm-12.316-6.544,1.781-2.107a6.115,6.115,0,0,0-4.3-1.84,5.317,5.317,0,1,0-.1,10.624,6.286,6.286,0,0,0,4.407-2l-1.781-1.9a3.763,3.763,0,0,1-2.478,1.2,2.686,2.686,0,0,1,0-5.357A3.387,3.387,0,0,1,868.174,479.51Z" transform="translate(-814.578 -475.293)"/><path class="l" d="M825.393,485.908h9.763v-2.245h-7.519v-.534Zm5.786-7.4h-5.785v6.006l2.244-2.779v-.989h1.733Zm-5.785-1.525h7.519v.536l2.244-2.779h-9.763Zm7.519,1.926v.989h-1.733l-1.808,2.238h5.786v-6.006h0Z" transform="translate(-791.344 -474.746)"/></g></svg>