<svg id="vector_emptystate_nomatches" xmlns="http://www.w3.org/2000/svg" xmlns:xlink="http://www.w3.org/1999/xlink" width="124.918" height="177.5" viewBox="0 0 124.918 177.5">
  <defs>
    <clipPath id="clip-path">
      <ellipse id="Elipse_11198" data-name="Elipse 11198" cx="31.56" cy="54.666" rx="31.56" ry="54.666" transform="translate(0 31.856) rotate(-30.311)" fill="none"/>
    </clipPath>
    <linearGradient id="linear-gradient" x1="2.462" y1="-1.321" x2="-0.154" y2="0.977" gradientUnits="objectBoundingBox">
      <stop offset="0" stop-color="#f36dd4"/>
      <stop offset="0.146" stop-color="#bb6df3"/>
      <stop offset="0.46" stop-color="#836df3"/>
      <stop offset="0.722" stop-color="#5277f7"/>
      <stop offset="1" stop-color="#6cf"/>
    </linearGradient>
  </defs>
  <g id="Grupo_49745" data-name="Grupo 49745" transform="translate(80.701 107.643)">
    <path id="Trazado_117467" data-name="Trazado 117467" d="M574.34,403.813a6.652,6.652,0,1,1-9.012-2.7A6.652,6.652,0,0,1,574.34,403.813Z" transform="translate(-530.934 -343.765)" fill="#c16572"/>
    <path id="Trazado_117468" data-name="Trazado 117468" d="M541.78,341.81l-14.4,7.76L554.2,398.888h0c.01.02.018.039.029.059,1.248,2.315,5.483,2.456,9.461.313s6.188-5.757,4.941-8.073c-.011-.02-.023-.038-.034-.057l0,0Z" transform="translate(-524.758 -333.278)" fill="#ec8490"/>
    <path id="Trazado_117469" data-name="Trazado 117469" d="M541.723,341.445c1.248,2.316-.964,5.931-4.941,8.074s-8.212,2-9.46-.314.964-5.93,4.941-8.073S540.475,339.129,541.723,341.445Z" transform="translate(-524.686 -332.884)" fill="#efb4bc"/>
    <path id="Trazado_117470" data-name="Trazado 117470" d="M532.752,331.414l-8.566,4.616,5.117,9.322h0l.016.035c.743,1.378,3.262,1.461,5.627.186s3.682-3.424,2.939-4.8c-.006-.012-.013-.022-.02-.034h0Z" transform="translate(-524.186 -331.414)" fill="#35b7d6"/>
  </g>
  <g id="Grupo_49751" data-name="Grupo 49751" transform="translate(0 0)">
    <g id="Grupo_49749" data-name="Grupo 49749" transform="translate(0)">
      <g id="Grupo_49748" data-name="Grupo 49748" clip-path="url(#clip-path)">
        <g id="Grupo_49747" data-name="Grupo 49747" transform="translate(-25.881 -115.457)">
          <g id="Grupo_49746" data-name="Grupo 49746" transform="translate(0 0)" opacity="0.8">
            <path id="Trazado_117471" data-name="Trazado 117471" d="M454.74,59.587l18.382,10.6-35.4,40.167-6.082,50.689L414.1,183.8l-12.124,28.331-7.651,18.535V196.471l8.955-23.119,13.432-16.417,5.97-23.507,9.93-30.907Z" transform="translate(-394.326 -59.587)" fill="url(#linear-gradient)"/>
            <path id="Trazado_117472" data-name="Trazado 117472" d="M487.112,168.4l-75.686-43.727V78.51l42.176,24.3,7.947,20.628,25.562,14.834Z" transform="translate(-397.392 -62.979)" fill="#afb6e5" opacity="0.8"/>
          </g>
        </g>
      </g>
    </g>
    <path id="Trazado_117473" data-name="Trazado 117473" d="M489.015,309.966c-22.629-13.065-40.972-44.7-40.972-70.671,0-10.431,2.962-18.356,7.97-23.262-9.536,3.1-15.661,12.928-15.661,27.932,0,25.966,18.344,57.606,40.972,70.671,13.539,7.817,25.542,7.21,33-.1C507.358,316.8,498.569,315.482,489.015,309.966Z" transform="translate(-428.458 -203.088)" fill="#35b7d6"/>
    <ellipse id="Elipse_11199" data-name="Elipse 11199" cx="31.56" cy="54.666" rx="31.56" ry="54.666" transform="translate(0 31.884) rotate(-30.311)" fill="#69cee5" opacity="0.2"/>
    <g id="Grupo_49750" data-name="Grupo 49750" transform="translate(21.816 6.93)">
      <path id="Trazado_117474" data-name="Trazado 117474" d="M492.18,214.331c-11.127-6.424-21.218-7.16-28.6-3.161-.208.112-10.8,6.024-11.137,6.536,7.514-5.668,18.637-5.582,31.05,1.585,22.629,13.065,40.972,44.705,40.972,70.671,0,13.249-4.778,22.457-12.461,26.567a9.221,9.221,0,0,0,2-.879c.219-.122,7.444-4.5,7.657-4.631,7.116-4.349,11.493-13.333,11.493-26.017C533.152,259.036,514.808,227.4,492.18,214.331Z" transform="translate(-452.441 -208.704)" fill="#35b7d6"/>
    </g>
    <path id="Trazado_117475" data-name="Trazado 117475" d="M481.324,220.374c-22.628-13.065-40.972-2.606-40.972,23.36S458.7,301.34,481.324,314.4s40.972,2.606,40.972-23.36S503.953,233.439,481.324,220.374Zm-.286,90.918c-20.891-12.062-37.827-41.273-37.827-65.246s16.936-33.628,37.827-21.567,37.827,41.273,37.827,65.246S501.93,323.353,481.038,311.292Z" transform="translate(-428.458 -202.857)" fill="#69cee5"/>
    <path id="Trazado_117476" data-name="Trazado 117476" d="M486.546,219.178c-10.848-6.262-20.7-7.107-28.032-3.441,6.833-1.912,16.883-.877,26.066,4.425,22.629,13.065,40.972,44.705,40.972,70.671,0,13.519-6.552,23.215-14.513,27.2,10-2.8,16.48-12.75,16.48-28.179C527.519,263.883,509.174,232.243,486.546,219.178Z" transform="translate(-431.713 -202.645)" fill="#2d9eb9"/>
  </g>
</svg>
