<svg xmlns="http://www.w3.org/2000/svg" width="923.733" height="513.932" viewBox="0 0 923.733 513.932"><defs><style>.a{fill:rgba(255,247,97,0.3);}.b{fill:#eeeff1;}.b,.c,.d,.e,.f,.g,.h{stroke:#161615;stroke-miterlimit:10;}.b,.c,.d,.e,.f,.g{stroke-width:5px;}.c{fill:#ececec;}.d{fill:#979797;}.e{fill:#dfe1e3;}.f{fill:#efeeee;}.g{fill:#fff761;}.h{fill:none;stroke-width:2px;}.i{fill:#3c3c3c;font-size:137px;font-family:RationalDisplayDEMO-SemiBold, Rational Display DEMO;font-weight:600;}</style></defs><g transform="translate(2.513 2.571)"><rect class="a" width="455" height="454" rx="227" transform="translate(219 44.375)"/><path class="b" d="M143.909,52.6a9.626,9.626,0,0,1,14.407-5.972c9.058,5.571,18.121,11.136,26.981,17.008,14.7,9.738,30.221,18.687,43.286,30.336,26.49,23.623,31.619,53.374,17.989,88.106a194.166,194.166,0,0,0-8.794,27.2c-4.581,19.9,2.5,32.982,21.316,41.1,14.539,6.277,29.891,8.231,45.521,7.62,19.645-.769,39.27-2.121,58.9-3.2,1.957-.106,3.923-.046,6.532-.072.511,6.01,1.007,11.827,1.524,17.9-19.763,1.24-38.975,2.356-58.178,3.674a143.935,143.935,0,0,1-50.931-5.209c-15.785-4.7-29.851-12.264-38.3-27.084-8.975-15.742-7.261-32.153-1.9-48.518,2.97-9.066,6.274-18.027,9.569-26.981,8.954-24.323,1.736-44.345-16.155-61.616C201.183,92.9,183.36,83.941,166.226,73.919c-6.05-3.539-12.011-7.221-17.981-10.892A9.629,9.629,0,0,1,143.909,52.6Z" transform="translate(-143.648 -45.196)"/><path class="b" d="M631.6,214.9a1.688,1.688,0,0,1-2.009,1.246c-44.3-10.22-75.889-36.5-96.473-76.911-8.134-15.972-19.091-21.43-36.311-16.345A133.2,133.2,0,0,0,464.33,137.4c-27.216,16.99-56.783,24.039-89.183,24.028-.459-5.76-.921-11.569-1.415-17.806,7.476-.6,14.37-1.159,21.267-1.7a124.629,124.629,0,0,0,56.64-18.641c13.2-8.159,26.869-15.593,42.3-18.833,24.782-5.209,42.852,2.8,54.811,25.041,8.748,16.267,18.824,31.343,33.057,43.34a111.232,111.232,0,0,0,37.91,21.3A17.58,17.58,0,0,1,631.6,214.9Z" transform="translate(286.611 62.74)"/><path class="c" d="M382.259,210.34c-15.418-.078-30.083-.181-44.749-.221-19.243-.052-19.622-.554-19.413-19.743.273-25.049.313-50.1.425-75.154.049-11.227,2.46-13.667,13.627-13.592,16.672.115,33.344.23,50.9.347C382.782,138.137,382.523,173.963,382.259,210.34Z" transform="translate(182.518 60.334)"/><path class="c" d="M312.967,209.989c-17.329-.261-34-.078-50.621-.936-8.748-.453-13.538-6.466-13.515-15.248.066-26.241.313-52.481.606-78.719.072-6.3,5.134-13.059,11.56-13.314,17.392-.689,34.822-.4,52.722-.505C313.467,137.837,313.22,173.367,312.967,209.989Z" transform="translate(53.045 59.658)"/><path class="d" d="M267.421,188.242c-5.485,0-10.24.25-14.958-.066-9.732-.651-15.326-6.486-15.355-16.236-.046-16.264.043-32.534.37-48.8.241-11.951,5.855-17.237,17.829-17.366,3.952-.043,7.907.146,12.654.244C267.78,133.353,267.6,160.4,267.421,188.242Z" transform="translate(31.102 68.082)"/><path class="d" d="M349.69,106.794c5.565.011,10.122-.212,14.649.075,9.683.617,15.432,6.546,15.435,16.175q.009,25.314-.448,50.621c-.158,9.267-6.024,15.134-15.337,15.521-4.715.2-9.451-.055-14.892-.109C349.294,161.574,349.489,134.487,349.69,106.794Z" transform="translate(240.541 69.858)"/><path class="c" d="M283.931,99.4c4.862,1.711,6.317,5.987,6.294,11.124q-.073,17.267-.21,34.535c-.178,21.436-.307,42.872-.62,64.308-.1,6.759-4.193,10.926-9.569,10.392-5.02-.5-7.522-4.018-7.474-10.918q.323-46.438.735-92.874c.023-2.973-.132-5.955.02-8.923A8.291,8.291,0,0,1,283.931,99.4Z" transform="translate(97.031 55.499)"/><path class="e" d="M358.7,212.264c-1.349,5.33-3.975,8.742-9.247,8.205-5.444-.557-7.712-4.228-7.672-9.572q.4-51,.729-102.006c.034-5.1,2.465-8.357,7.557-9.135,4.394-.669,8.63,3,9.348,8.136a58.471,58.471,0,0,1,.181,8.337q-.25,45.345-.545,90.684C359.034,208.9,358.79,210.881,358.7,212.264Z" transform="translate(226.853 56.687)"/><path class="f" d="M258.121,116.823c-.049,8.693-.092,16.52-.138,24.86-9.012-.115-17.3-.149-25.586-.35-5.043-.121-8.225-2.219-7.956-7.933a73.343,73.343,0,0,0-.517-7.7c-.37-6.3,1.57-8.774,8.025-8.96C240.428,116.5,248.92,116.769,258.121,116.823Z" transform="translate(6.39 88.406)"/><path class="f" d="M361,141.238c.069-8.969.129-16.649.192-25.041,9.178.2,18.038.273,26.883.649,4.015.169,6.607,2.121,6.475,6.736a39.4,39.4,0,0,0,.643,8.891c1.119,5.5-1.713,8.171-6.478,8.418C379.667,141.356,370.59,141.158,361,141.238Z" transform="translate(262.798 87.577)"/><path class="g" d="M345.49,129.217c-.118,5.777-.218,10.63-.327,16.038-11.839-.164-23.089-.115-34.317-.56-5.611-.221-9.936-4.136-9.46-8,.666-5.381,5.017-7.2,9.439-7.344C322.062,128.965,333.321,129.217,345.49,129.217Z" transform="translate(151.257 111.772)"/><path class="g" d="M345.49,110.661c-.118,5.777-.218,10.631-.327,16.038-11.839-.164-23.089-.115-34.317-.557-5.611-.224-9.936-4.136-9.46-8,.666-5.384,5.017-7.2,9.439-7.344C322.062,110.411,333.321,110.664,345.49,110.661Z" transform="translate(151.257 77.076)"/><path d="M300.422,111.4c-.781.442-1.975,1.6-2.56,1.343a4.75,4.75,0,0,1-2.508-2.724c-1.136-4.391-1.949-8.868-2.89-13.314-1.309-6.185-2.738-12.35-3.831-18.575-.207-1.174.918-2.583,1.429-3.883,1.111.818,2.982,1.461,3.217,2.483,2.474,10.777,4.69,21.614,6.96,32.44A21.133,21.133,0,0,1,300.422,111.4Z" transform="translate(127.427 9.123)"/><path d="M313.356,190.092c-.585.474-1.82,1.863-2.153,1.673-1.168-.672-2.681-1.762-2.89-2.907-.964-5.246-1.524-10.565-2.236-15.854-.74-5.49-1.624-10.963-2.13-16.474-.109-1.188,1.128-2.5,1.745-3.754,1.019.9,2.784,1.676,2.939,2.7,1.67,10.941,3.085,21.918,4.566,32.887C313.253,188.757,313.27,189.153,313.356,190.092Z" transform="translate(156.102 155.98)"/><path d="M308.755,110.483l-2.833,2.448c-.74-1.409-2.253-2.91-2.1-4.21,1.277-10.622,2.793-21.215,4.463-31.782.178-1.125,1.814-2.018,2.772-3.016.683,1.2,2.069,2.48,1.943,3.585C311.783,88.126,310.308,98.716,308.755,110.483Z" transform="translate(155.862 8.522)"/><path d="M315.4,111.942c5.938-10.524,11.345-20.225,16.933-29.817.511-.878,2.173-1.085,3.3-1.6.261,1.358,1.188,3.068.683,4.018q-7.822,14.7-16.129,29.133c-.5.867-2.77,1.748-3.252,1.375C315.992,114.318,315.731,112.708,315.4,111.942Z" transform="translate(177.526 20.868)"/><path d="M274.84,79.853a46.07,46.07,0,0,1,3.786,4.385c5.312,8.395,10.633,16.787,15.713,25.322.786,1.323.356,3.372.491,5.086-1.541-.784-3.694-1.159-4.52-2.411-5.685-8.627-11.13-17.415-16.543-26.215a6.7,6.7,0,0,1-.858-3.788C272.971,81.446,274.076,80.743,274.84,79.853Z" transform="translate(98.037 19.613)"/><path d="M318.056,148.315a28.764,28.764,0,0,1,2.4,2.859c5.513,8.725,11.075,17.424,16.365,26.286.755,1.269.126,3.367.138,5.08-1.4-.755-3.344-1.154-4.11-2.322-5.763-8.8-11.334-17.725-16.833-26.691a5.77,5.77,0,0,1-.488-3.788C315.634,149.162,317.069,148.834,318.056,148.315Z" transform="translate(177.551 147.638)"/><path d="M294.616,151.131c-5.947,10.444-11.285,19.967-16.838,29.36-.591,1-2.451,1.248-3.72,1.845-.169-1.51-1-3.378-.4-4.474q7.667-14.116,15.865-27.942c.608-1.03,2.465-1.32,3.745-1.954Z" transform="translate(99.072 146.984)"/><path d="M291.7,171.7c1.194-5.02,2.233-10.085,3.679-15.033.4-1.36,2.012-2.368,3.065-3.536.66,1.4,2.1,2.947,1.854,4.164-2.1,10.516-4.431,20.988-6.905,31.424-.275,1.165-1.871,2.015-2.856,3.014-.634-1.409-2-2.948-1.779-4.2.938-5.272,2.351-10.458,3.59-15.676Z" transform="translate(127.669 156.642)"/><line class="h" x2="39.352" transform="translate(316.963 189.675)"/><line class="h" x2="39.352" transform="translate(316.963 205.793)"/><line class="h" x2="39.352" transform="translate(316.963 224.049)"/><line class="h" x2="39.352" transform="translate(316.963 240.167)"/><text class="i" transform="translate(308 477.361)"><tspan x="0" y="0">404</tspan></text></g></svg>