<svg id="img_logo_godar_L" xmlns="http://www.w3.org/2000/svg" width="54.056" height="54.055" viewBox="0 0 54.056 54.055">
  <g id="img_logo_godar_L-2" data-name="img_logo_godar_L">
    <g id="img_logo_godar_L-3" data-name="img_logo_godar_L">
      <g id="Grupo_61405" data-name="Grupo 61405" transform="translate(10.469 -78)">
        <g id="Grupo_61405-2" data-name="Grupo 61405" transform="translate(-49 71)">
          <g id="Grupo_61406" data-name="Grupo 61406" transform="translate(34.531)">
            <path id="Trazado_148355" data-name="Trazado 148355" d="M81.551,25.349c-1.54-.027-2.9-.958-4.222-1.646a35.543,35.543,0,0,0-15.314-3.977,1.044,1.044,0,0,0-.174-.014,1.1,1.1,0,0,1-.113,0l-.172,0-.171,0-.037.008A35.566,35.566,0,0,0,45.789,23.7c-1.318.688-2.681,1.619-4.222,1.646-1.149.02-2.649-.778-2.612-2.087.043-1.473,1.741-2.191,2.775-2.9a4.615,4.615,0,0,0,1.993-2.772c.454-1.857-.113-3.844-.227-5.758a23.6,23.6,0,0,1,36.126,0c-.115,1.914-.681,3.9-.227,5.758a4.615,4.615,0,0,0,1.993,2.772c1.033.708,2.732,1.425,2.775,2.9.037,1.309-1.463,2.107-2.612,2.087M67.275,49.934c-2-1.285-2.88-3.877-2.939-6.206a24.471,24.471,0,0,1,.4-4.436,21.357,21.357,0,0,1,.816-3.782,7.206,7.206,0,0,1,5.5-4.567,13.951,13.951,0,0,1,8.236,1.28c1.579.677,3.661,2,4.115,3.754A23.656,23.656,0,0,1,67.275,49.934m-5.716-21.1a2.773,2.773,0,1,1,2.772-2.773,2.773,2.773,0,0,1-2.772,2.773M58.782,43.729c-.059,2.329-.936,4.921-2.939,6.206A23.656,23.656,0,0,1,39.712,35.978c.454-1.758,2.536-3.078,4.115-3.754a13.951,13.951,0,0,1,8.236-1.28,7.206,7.206,0,0,1,5.5,4.567,21.3,21.3,0,0,1,.816,3.782,24.415,24.415,0,0,1,.4,4.436M61.559,0A27.028,27.028,0,1,0,88.587,27.027,27.028,27.028,0,0,0,61.559,0" transform="translate(-30.531 7)" fill="#fff"/>
          </g>
        </g>
      </g>
    </g>
  </g>
</svg>
