<svg id="img_logo_godar_L" xmlns="http://www.w3.org/2000/svg" xmlns:xlink="http://www.w3.org/1999/xlink" width="152.972" height="144.197" viewBox="0 0 152.972 144.197">
  <defs>
    <clipPath id="clip-path">
      <rect id="Rectángulo_17503" data-name="Rectángulo 17503" width="152.972" height="144.197" fill="#fff"/>
    </clipPath>
  </defs>
  <g id="img_logo_godar_L-2" data-name="img_logo_godar_L">
    <g id="img_logo_godar_L-3" data-name="img_logo_godar_L">
      <g id="Grupo_61405" data-name="Grupo 61405">
        <path id="Trazado_148336" data-name="Trazado 148336" d="M9.659,108.07l2.388,7.05H7.3ZM6.97,102.883,0,122.146H4.912l1.153-3.4h7.189l1.152,3.4h4.967L12.4,102.883Z" fill="#fff"/>
        <g id="Grupo_61405-2" data-name="Grupo 61405">
          <g id="Grupo_61404" data-name="Grupo 61404" clip-path="url(#clip-path)">
            <path id="Trazado_148337" data-name="Trazado 148337" d="M26.094,102.883v11.524a3.817,3.817,0,0,0,.85,2.662,3.207,3.207,0,0,0,2.5.933,3.3,3.3,0,0,0,2.525-.933,3.737,3.737,0,0,0,.878-2.662V102.883h4.692v11.5a8.177,8.177,0,0,1-1.1,4.363,7.037,7.037,0,0,1-2.95,2.689,9.274,9.274,0,0,1-4.129.906,9.032,9.032,0,0,1-4.076-.893,6.635,6.635,0,0,1-2.84-2.689A8.58,8.58,0,0,1,21.4,114.38v-11.5Z" fill="#fff"/>
            <path id="Trazado_148338" data-name="Trazado 148338" d="M54.686,102.883v3.76h-5.1v15.5H44.89v-15.5h-5.1v-3.76Z" fill="#fff"/>
            <path id="Trazado_148339" data-name="Trazado 148339" d="M69.845,116.521a6.663,6.663,0,0,0,0-8.136,4.745,4.745,0,0,0-3.69-1.523,4.809,4.809,0,0,0-3.719,1.508,6.708,6.708,0,0,0,0,8.164,4.779,4.779,0,0,0,3.719,1.523,4.728,4.728,0,0,0,3.69-1.536m-8.671,4.554a9.446,9.446,0,0,1-3.6-3.525,10.38,10.38,0,0,1,0-10.167,9.469,9.469,0,0,1,3.6-3.512,10.45,10.45,0,0,1,9.96,0,9.261,9.261,0,0,1,3.568,3.512,10.518,10.518,0,0,1-.014,10.167,9.366,9.366,0,0,1-3.567,3.525,10.424,10.424,0,0,1-9.947,0" fill="#fff"/>
            <path id="Trazado_148340" data-name="Trazado 148340" d="M100.426,102.883v19.263H95.734V110.594l-4.308,11.552H87.639L83.3,110.567v11.579H78.612V102.883h5.543l5.4,13.336,5.351-13.336Z" fill="#fff"/>
            <path id="Trazado_148341" data-name="Trazado 148341" d="M108.494,106.642v3.9h6.283v3.621h-6.283v4.226H115.6v3.759H103.8V102.882h11.8v3.76Z" fill="#fff"/>
            <path id="Trazado_148342" data-name="Trazado 148342" d="M132.5,102.883v3.76h-5.1v15.5h-4.693v-15.5h-5.1v-3.76Z" fill="#fff"/>
            <path id="Trazado_148343" data-name="Trazado 148343" d="M145.646,115.121l-2.388-7.051-2.359,7.051Zm1.207,3.622h-7.189l-1.153,3.4H133.6l6.969-19.263H146l6.97,19.263h-4.967Z" fill="#fff"/>
            <path id="Trazado_148344" data-name="Trazado 148344" d="M43.045,131.558v1.789H40.616v7.377H38.383v-7.377H35.954v-1.789Z" fill="#fff"/>
            <path id="Trazado_148345" data-name="Trazado 148345" d="M47.381,133.706a2.5,2.5,0,0,1,1.306-.346v2.363h-.615a1.876,1.876,0,0,0-1.253.359,1.6,1.6,0,0,0-.419,1.26v3.382H44.168v-7.286H46.4v1.215a2.926,2.926,0,0,1,.981-.947" fill="#fff"/>
            <path id="Trazado_148346" data-name="Trazado 148346" d="M54.307,135.763a1.57,1.57,0,0,0-2.259-.007,1.807,1.807,0,0,0-.464,1.313,1.848,1.848,0,0,0,.464,1.325,1.554,1.554,0,0,0,2.259.007,2.11,2.11,0,0,0,0-2.638m-4.57-.666a3.161,3.161,0,0,1,1.155-1.3,3.006,3.006,0,0,1,1.633-.457,2.8,2.8,0,0,1,1.351.312,2.3,2.3,0,0,1,.894.824v-1.033H57v7.287H54.77v-1.032a2.421,2.421,0,0,1-.907.823,2.8,2.8,0,0,1-1.351.314,2.963,2.963,0,0,1-1.62-.465,3.192,3.192,0,0,1-1.155-1.318,4.8,4.8,0,0,1,0-3.95" fill="#fff"/>
            <path id="Trazado_148347" data-name="Trazado 148347" d="M65.106,134.188a3.239,3.239,0,0,1,.763,2.279v4.256h-2.22v-3.956a1.6,1.6,0,0,0-.379-1.136,1.482,1.482,0,0,0-2.036,0,1.6,1.6,0,0,0-.379,1.136v3.956H58.622v-7.286h2.233v.967a2.369,2.369,0,0,1,.914-.764,2.908,2.908,0,0,1,1.293-.28,2.648,2.648,0,0,1,2.044.828" fill="#fff"/>
            <path id="Trazado_148348" data-name="Trazado 148348" d="M68.69,140.5a2.9,2.9,0,0,1-1.175-.894,2.346,2.346,0,0,1-.483-1.273h2.206a.85.85,0,0,0,.353.613,1.24,1.24,0,0,0,.771.235,1.1,1.1,0,0,0,.646-.163.5.5,0,0,0,.228-.424.488.488,0,0,0-.326-.463,6.656,6.656,0,0,0-1.058-.333,10.142,10.142,0,0,1-1.306-.386,2.246,2.246,0,0,1-.9-.639,1.746,1.746,0,0,1-.379-1.182,2,2,0,0,1,.346-1.143,2.33,2.33,0,0,1,1.019-.817,3.914,3.914,0,0,1,1.6-.3,3.211,3.211,0,0,1,2.161.679,2.637,2.637,0,0,1,.907,1.8H71.236a.882.882,0,0,0-.333-.6,1.154,1.154,0,0,0-.737-.222,1.022,1.022,0,0,0-.6.15.48.48,0,0,0-.209.412.5.5,0,0,0,.333.47,5.339,5.339,0,0,0,1.038.313,11.444,11.444,0,0,1,1.319.411,2.276,2.276,0,0,1,.9.653,1.853,1.853,0,0,1,.4,1.208,1.913,1.913,0,0,1-.36,1.142,2.37,2.37,0,0,1-1.031.79,3.954,3.954,0,0,1-1.56.288,4.182,4.182,0,0,1-1.7-.327" fill="#fff"/>
            <path id="Trazado_148349" data-name="Trazado 148349" d="M79.665,135.755a1.535,1.535,0,0,0-1.143-.476,1.507,1.507,0,0,0-1.13.483,2.11,2.11,0,0,0,0,2.638,1.563,1.563,0,0,0,2.266-.007,1.83,1.83,0,0,0,.471-1.325,1.811,1.811,0,0,0-.464-1.313m-1.822-2.109a2.764,2.764,0,0,1,1.345-.313,3.006,3.006,0,0,1,1.632.458,3.156,3.156,0,0,1,1.156,1.3,4.809,4.809,0,0,1,0,3.949,3.19,3.19,0,0,1-1.156,1.319,2.978,2.978,0,0,1-1.632.465,2.79,2.79,0,0,1-1.339-.314,2.464,2.464,0,0,1-.907-.809V144.2H74.709v-10.76h2.233v1.033a2.427,2.427,0,0,1,.9-.824" fill="#fff"/>
            <path id="Trazado_148350" data-name="Trazado 148350" d="M87.983,138.426a1.867,1.867,0,0,0,.45-1.345A1.9,1.9,0,0,0,88,135.736a1.486,1.486,0,0,0-2.162-.007,2.338,2.338,0,0,0-.006,2.7,1.376,1.376,0,0,0,1.064.471,1.46,1.46,0,0,0,1.091-.471m-3.017,1.946a3.353,3.353,0,0,1-1.345-1.306,4.234,4.234,0,0,1,.007-3.964,3.359,3.359,0,0,1,1.358-1.311,4.314,4.314,0,0,1,3.865,0,3.365,3.365,0,0,1,1.358,1.311,4.172,4.172,0,0,1-.006,3.957,3.4,3.4,0,0,1-1.372,1.313,4.1,4.1,0,0,1-1.939.457,4.029,4.029,0,0,1-1.926-.457" fill="#fff"/>
            <path id="Trazado_148351" data-name="Trazado 148351" d="M95.106,133.706a2.509,2.509,0,0,1,1.306-.346v2.363H95.8a1.878,1.878,0,0,0-1.254.359,1.6,1.6,0,0,0-.418,1.26v3.382H91.894v-7.286h2.232v1.215a2.933,2.933,0,0,1,.98-.947" fill="#fff"/>
            <path id="Trazado_148352" data-name="Trazado 148352" d="M101.543,138.831v1.893h-1.136a2.783,2.783,0,0,1-1.894-.594,2.455,2.455,0,0,1-.679-1.939v-2.9h-.887v-1.854h.887v-1.776h2.233v1.776h1.463v1.854h-1.463v2.925a.613.613,0,0,0,.157.47.761.761,0,0,0,.522.144Z" fill="#fff"/>
            <path id="Trazado_148353" data-name="Trazado 148353" d="M107.367,136.376a1.154,1.154,0,0,0-.391-.914,1.449,1.449,0,0,0-.981-.339,1.408,1.408,0,0,0-.946.326,1.441,1.441,0,0,0-.476.927Zm2.246,1.24H104.56a1.514,1.514,0,0,0,.436,1.038,1.338,1.338,0,0,0,.947.36,1.174,1.174,0,0,0,1.162-.706h2.376a3.282,3.282,0,0,1-.658,1.293,3.316,3.316,0,0,1-1.195.9,3.837,3.837,0,0,1-1.607.327,3.912,3.912,0,0,1-1.905-.457,3.233,3.233,0,0,1-1.306-1.306,4.016,4.016,0,0,1-.47-1.985,4.088,4.088,0,0,1,.462-1.985,3.206,3.206,0,0,1,1.3-1.3,4.228,4.228,0,0,1,3.8-.013,3.175,3.175,0,0,1,1.287,1.266,3.858,3.858,0,0,1,.463,1.919,5.951,5.951,0,0,1-.038.653" fill="#fff"/>
            <path id="Trazado_148354" data-name="Trazado 148354" d="M112.093,140.5a2.9,2.9,0,0,1-1.175-.894,2.346,2.346,0,0,1-.483-1.273h2.206a.85.85,0,0,0,.353.613,1.24,1.24,0,0,0,.771.235,1.1,1.1,0,0,0,.646-.163.5.5,0,0,0,.228-.424.488.488,0,0,0-.326-.463,6.671,6.671,0,0,0-1.057-.333,10.114,10.114,0,0,1-1.307-.386,2.246,2.246,0,0,1-.9-.639,1.746,1.746,0,0,1-.379-1.182,2,2,0,0,1,.346-1.143,2.33,2.33,0,0,1,1.019-.817,3.914,3.914,0,0,1,1.6-.3,3.211,3.211,0,0,1,2.161.679,2.637,2.637,0,0,1,.907,1.8h-2.063a.882.882,0,0,0-.333-.6,1.154,1.154,0,0,0-.737-.222,1.022,1.022,0,0,0-.6.15.48.48,0,0,0-.209.412.5.5,0,0,0,.333.47,5.339,5.339,0,0,0,1.038.313,11.444,11.444,0,0,1,1.319.411,2.276,2.276,0,0,1,.9.653,1.853,1.853,0,0,1,.4,1.208,1.913,1.913,0,0,1-.36,1.142,2.37,2.37,0,0,1-1.031.79,3.954,3.954,0,0,1-1.56.288,4.182,4.182,0,0,1-1.7-.327" fill="#fff"/>
            <path id="Trazado_148355" data-name="Trazado 148355" d="M107.5,39.337c-2.39-.042-4.505-1.487-6.551-2.554a55.156,55.156,0,0,0-23.764-6.171,1.62,1.62,0,0,0-.27-.021,1.7,1.7,0,0,1-.175,0l-.267,0-.266,0a.542.542,0,0,1-.058.012A55.191,55.191,0,0,0,52,36.783c-2.046,1.067-4.161,2.512-6.551,2.554-1.783.031-4.111-1.207-4.053-3.239.067-2.286,2.7-3.4,4.306-4.5A7.162,7.162,0,0,0,48.8,27.3c.7-2.881-.175-5.965-.353-8.935a36.624,36.624,0,0,1,56.06,0c-.178,2.97-1.057,6.054-.353,8.935a7.162,7.162,0,0,0,3.093,4.3c1.6,1.1,4.239,2.212,4.306,4.5.058,2.032-2.27,3.27-4.053,3.239M85.343,77.488c-3.109-1.994-4.469-6.016-4.561-9.63a37.975,37.975,0,0,1,.625-6.884A33.142,33.142,0,0,1,82.674,55.1a11.183,11.183,0,0,1,8.535-7.087c4.311-.916,8.818.289,12.78,1.986,2.45,1.05,5.681,3.1,6.386,5.826A36.709,36.709,0,0,1,85.343,77.488m-8.87-32.743a4.3,4.3,0,1,1,4.3-4.3,4.3,4.3,0,0,1-4.3,4.3M72.164,67.858c-.092,3.614-1.452,7.636-4.561,9.63A36.709,36.709,0,0,1,42.571,55.83c.705-2.728,3.936-4.776,6.386-5.826,3.962-1.7,8.469-2.9,12.78-1.986A11.183,11.183,0,0,1,70.272,55.1a33.052,33.052,0,0,1,1.266,5.869,37.887,37.887,0,0,1,.626,6.884M76.473,0a41.942,41.942,0,1,0,41.942,41.941A41.942,41.942,0,0,0,76.473,0" fill="#fff"/>
          </g>
        </g>
      </g>
    </g>
  </g>
</svg>
